ply
format ascii 1.0
comment Created by Blender 2.90.1 - www.blender.org
element vertex 264
property float x
property float y
property float z
element face 523
property list uchar uint vertex_indices
end_header
-2.245503 9.759592 -32.875008
-2.106113 10.345190 -33.807713
-1.983537 9.743235 -33.696201
-1.159765 10.330562 -34.244823
-0.459053 9.758706 -33.599369
-1.126294 9.754560 -34.073437
1.440659 10.595530 -32.935482
-0.187795 10.364472 -31.959877
-0.493160 9.774794 -32.216370
-1.163745 9.752259 -31.828981
-1.966377 10.425694 -32.028996
-1.875886 9.745922 -32.178535
-1.166109 1.737971 -32.893959
-0.493192 1.737971 -32.215065
-1.174876 1.737971 -31.900936
-1.211136 15.317481 -32.572662
-1.532040 15.254846 -32.534359
0.834275 14.976797 -32.725227
0.078829 10.399552 -32.876801
0.456147 10.618836 -32.496826
-0.109779 10.473405 -32.116974
-1.851120 1.737971 -32.202972
-2.179174 1.737971 -32.884933
-1.138068 10.365438 -31.474854
-1.839026 1.737971 -33.572849
2.507224 11.565348 -33.291016
-0.280160 10.425000 -33.826210
-1.822994 10.427553 -33.946789
-1.683710 10.476612 -34.446175
-0.481098 1.737971 -33.584946
-1.157643 1.737971 -33.852928
-2.435958 10.363735 -32.861435
0.347672 15.477599 -34.107819
-0.982413 15.481101 -34.065483
0.537501 15.254886 -33.018063
-2.941077 10.770658 -33.051296
-2.434933 10.475197 -33.405186
-1.830451 14.756366 -34.582458
-1.689310 14.694110 -34.902046
-1.870690 14.058688 -34.688969
-0.137329 10.437601 -31.416859
-0.553504 10.421491 -31.339394
-2.959658 11.260152 -34.822433
-3.061268 11.405833 -34.581242
-2.087657 11.603306 -36.667648
-1.487508 10.461501 -31.596581
-2.127082 10.708458 -31.236603
-1.689899 10.663751 -31.303391
-2.224721 10.914719 -30.912912
-0.267288 10.827011 -34.649857
0.480990 10.697659 -33.772812
2.637931 11.886635 -32.955132
2.602035 11.519798 -32.951675
-1.139467 13.031141 -37.705112
-1.330345 13.554578 -38.266949
-1.040580 13.615824 -38.361206
2.419946 11.888224 -29.639091
2.688747 12.495765 -29.602852
2.596476 12.510182 -29.345226
-2.233659 10.834568 -35.435574
-2.762680 10.675341 -34.643929
-1.714105 15.065639 -32.327698
0.671849 15.159679 -32.635693
-3.713757 12.837347 -29.893494
-3.945940 12.518705 -30.059595
-3.734275 12.127343 -29.723066
-1.597196 14.589758 -31.304255
-1.626867 14.650304 -31.355564
-3.687432 12.869076 -29.913456
0.497319 13.174737 -32.036606
0.727202 15.174597 -32.144203
-2.370507 13.047651 -37.830093
-2.490237 13.193375 -37.761925
-2.437948 13.495607 -37.681431
-1.854753 15.574055 -34.078133
-1.393349 15.182432 -33.639904
-1.614333 15.179017 -32.763317
-3.266161 14.421505 -32.899830
-2.424851 14.662708 -31.533112
-2.196732 15.637506 -34.048923
-2.858823 14.984955 -33.417759
-1.893929 14.521131 -31.389427
-3.523512 12.841680 -29.756075
0.518390 13.195944 -31.929180
1.951202 14.604899 -29.239586
0.586556 13.190607 -31.923378
-3.789424 12.851371 -29.993652
-4.243678 11.975869 -30.071800
-3.254223 11.587237 -32.364296
-2.319867 11.053883 -30.679581
-4.662367 12.191832 -30.774298
-4.348442 12.678617 -30.558025
-4.402903 12.761532 -30.794197
-4.073011 12.891010 -30.349010
-4.331822 12.904192 -30.831116
-2.649414 13.191463 -37.378479
-4.347023 12.879937 -30.834736
-4.537068 12.554769 -32.500648
-2.788389 13.326603 -36.976692
-3.057609 13.210678 -36.901028
-2.880317 13.424567 -36.686359
-2.687341 10.644993 -34.064754
-2.107641 10.561161 -33.844990
-2.498726 10.699389 -33.769604
-3.141381 11.006779 -34.316086
-2.763292 15.114095 -34.534859
-1.971944 14.765440 -35.383934
-2.669098 13.516446 -36.967922
-3.535378 11.993094 -34.826286
-3.148029 11.273639 -34.332958
-3.733061 13.583076 -32.999535
-3.542378 14.098467 -33.677666
-1.995120 10.550353 -34.328640
-3.205337 11.373410 -34.397430
-3.161780 11.101148 -34.637589
-1.856362 15.581880 -34.058418
-2.752802 12.883509 -37.239483
-2.958074 10.930957 -33.887875
-2.102310 10.631210 -34.864578
-1.466336 10.495881 -35.125618
-3.293288 11.426285 -32.529324
-3.301999 11.437183 -32.415932
2.544662 11.892491 -33.252197
2.482856 12.499593 -32.813995
2.836407 12.945782 -32.764126
2.806214 12.948055 -32.616901
2.790349 14.189356 -32.547649
2.405814 14.487824 -32.660839
2.767037 14.205145 -32.503357
-1.753029 13.952837 -36.839504
-1.513187 12.608901 -37.899872
-0.651750 15.014846 -35.912327
-0.810452 14.984040 -35.799896
-0.971969 15.447756 -34.218719
-0.862113 15.401151 -34.512352
-0.546732 15.030439 -35.864704
-0.791421 15.454293 -34.331306
-1.081825 15.494361 -33.925091
2.597039 12.900131 -29.179001
3.035402 13.378607 -31.805265
2.919651 13.827115 -31.884148
2.719694 13.432755 -29.188492
2.732816 14.278539 -31.947336
2.571372 13.040162 -29.087400
2.672228 13.474458 -29.074999
-0.496391 15.366949 -34.837395
-0.600429 15.427486 -34.597130
-0.520850 13.623537 -37.983269
-0.115570 11.231693 -34.698887
1.881035 11.523363 -34.038994
2.455758 12.567844 -33.093403
3.156590 13.463301 -34.002090
3.153248 13.608311 -33.031940
1.546454 12.315915 -34.920471
0.013643 13.221459 -37.027363
-0.457636 13.981921 -37.583961
-2.995475 11.010468 -32.434834
-1.590331 11.323378 -29.890137
-3.806316 11.799578 -29.625603
-1.573584 11.201977 -30.058422
-1.303803 11.466252 -30.014196
-1.260640 11.339632 -30.223114
-0.930858 12.544721 -28.461855
1.091962 13.455226 -28.162418
-0.040407 10.966407 -30.909859
2.343707 12.579254 -29.003784
1.998622 12.644600 -28.488287
2.355259 14.464605 -29.334177
2.155090 14.235106 -28.793087
1.812010 14.407286 -28.940178
1.485741 14.338802 -28.823046
1.564212 14.331689 -28.841637
0.340073 13.488377 -28.602686
0.695739 13.411308 -28.340359
-0.964722 10.488475 -31.252567
0.071482 10.427204 -31.616938
-3.060673 11.100595 -32.808434
-1.574872 13.477395 -29.061665
-0.286661 13.259477 -28.621265
-2.310852 14.068493 -29.795345
-1.530001 12.455309 -29.055462
-2.050261 11.900179 -29.592760
-1.202109 10.973143 -30.683296
-2.857976 10.710266 -32.479805
-2.197658 9.136246 -32.883492
-0.481098 9.140859 -33.584946
-0.169338 1.737971 -32.902836
-1.156498 9.137694 -33.884422
-0.457070 9.122271 -32.184231
-1.194455 9.119220 -31.791994
-1.851120 9.140859 -32.202972
-0.151776 9.143564 -32.906872
-1.840971 9.139376 -33.571926
2.385733 13.593847 -28.624437
1.434090 13.046222 -28.201107
2.206273 13.097075 -28.531767
1.888765 12.617984 -28.450176
2.122424 12.863375 -28.510788
2.309757 12.936119 -28.909033
2.550831 12.896708 -29.127914
2.337080 12.628511 -28.996754
0.145330 11.172997 -31.832891
2.305237 12.844013 -28.949839
0.959362 12.945198 -28.203764
2.497803 13.577684 -28.766306
2.352294 14.502837 -32.756725
1.116052 14.885011 -32.822647
1.068361 14.874491 -32.919819
0.657756 15.134773 -33.001736
0.519077 15.272199 -32.981972
0.209009 15.419312 -31.962053
1.141060 14.992412 -32.060871
1.588392 14.899167 -32.031689
2.428913 14.789553 -30.727163
2.358938 13.490797 -34.818417
1.138799 13.742217 -36.341400
-1.687186 15.670871 -33.798615
-0.618349 15.314014 -34.956367
-0.684813 15.313340 -34.940296
0.446509 15.420671 -34.082020
0.760930 15.177557 -34.057808
0.281749 14.929149 -35.963860
-0.126994 14.337061 -37.362972
0.684662 14.375129 -36.854939
1.207039 13.978084 -36.089294
2.966285 14.058008 -34.058453
0.661072 14.671818 -36.035355
0.565306 14.891681 -35.334400
1.145519 14.963658 -34.147598
0.634792 15.169485 -33.192371
1.765529 14.691287 -34.066578
0.645175 15.142582 -33.039162
-0.315803 15.237763 -31.660732
-3.610822 13.915192 -32.291000
-4.205259 13.294080 -31.419865
-4.212696 13.210101 -34.070793
-3.824477 13.297472 -35.362350
-3.088259 14.298675 -35.515350
-4.004119 12.377411 -30.079611
0.361957 13.579637 -28.586411
-3.103852 14.270218 -30.992098
-4.331006 13.256239 -31.002573
-0.559976 14.701398 -31.870581
-1.339120 14.545594 -30.939098
-0.300437 15.247643 -31.647985
0.154726 13.485369 -28.711002
-1.415109 14.366712 -30.483368
-3.372901 13.698919 -30.636023
0.734778 15.189431 -31.990950
0.736039 15.188158 -31.999598
0.724887 15.195565 -31.967670
0.871295 15.123662 -32.034367
0.251013 14.584002 -29.040085
0.498071 14.419350 -28.751019
0.906313 15.104985 -32.047737
-0.178281 15.171149 -30.581091
-0.229749 15.280099 -31.542715
-2.010774 13.025779 -28.989910
-1.571293 13.074249 -28.842491
-2.614716 12.976721 -29.206667
-2.655325 13.496569 -29.798466
-1.833544 12.601024 -29.094210
2.805861 14.135890 -30.504047
-1.949976 13.627411 -29.485743
3 0 1 2
3 3 4 5
3 6 7 8
3 9 10 11
3 12 13 14
3 15 16 17
3 18 19 20
3 12 21 22
3 8 23 9
3 2 3 5
3 24 12 22
3 25 18 26
3 3 27 28
3 29 12 30
3 4 18 6
3 11 31 0
3 32 33 34
3 35 36 31
3 37 38 39
3 7 40 41
3 42 43 44
3 10 23 45
3 46 47 48
3 49 50 26
3 25 51 52
3 53 54 55
3 56 57 58
3 59 60 42
3 17 61 62
3 63 64 65
3 66 67 68
3 17 69 70
3 71 72 73
3 74 75 39
3 15 76 16
3 77 78 61
3 76 79 80
3 68 67 81
3 82 63 65
3 83 84 85
3 68 86 63
3 87 88 89
3 90 91 92
3 93 94 91
3 95 71 44
3 96 97 92
3 98 99 100
3 101 102 103
3 104 60 101
3 100 105 106
3 107 38 37
3 108 99 109
3 110 77 111
3 60 112 101
3 79 105 80
3 99 43 113
3 60 114 42
3 79 115 74
3 75 76 15
3 95 116 98
3 95 107 72
3 117 101 103
3 103 102 36
3 117 113 104
3 73 107 37
3 118 28 112
3 59 119 118
3 35 103 36
3 112 27 102
3 88 120 121
3 102 27 1
3 122 123 51
3 123 124 125
3 126 127 128
3 59 42 73
3 129 130 59
3 54 131 132
3 133 134 37
3 55 132 135
3 133 33 136
3 33 137 15
3 58 57 138
3 139 140 141
3 128 142 140
3 143 141 144
3 32 136 33
3 32 145 146
3 55 147 53
3 53 148 49
3 122 149 150
3 151 152 124
3 149 153 151
3 49 148 50
3 149 25 50
3 149 148 154
3 154 147 155
3 154 148 147
3 120 156 121
3 89 157 158
3 159 160 157
3 160 161 162
3 161 163 162
3 164 41 40
3 165 166 164
3 144 167 168
3 169 170 171
3 171 170 172
3 173 162 163
3 171 168 169
3 41 174 7
3 47 45 23
3 40 20 175
3 175 20 56
3 109 176 120
3 121 48 89
3 177 178 179
3 180 181 160
3 159 89 182
3 176 117 35
3 45 47 46
3 113 109 99
3 156 46 48
3 44 99 116
3 176 183 156
3 113 114 104
3 21 184 22
3 185 186 29
3 24 187 30
3 188 14 13
3 189 21 14
3 186 188 13
3 187 29 30
3 184 24 22
3 11 184 190
3 4 191 185
3 2 187 192
3 188 9 189
3 9 190 189
3 191 8 188
3 187 4 185
3 0 192 184
3 193 194 195
3 196 166 197
3 166 196 164
3 143 198 199
3 165 56 58
3 200 201 202
3 202 199 198
3 57 52 51
3 163 203 194
3 203 196 194
3 174 41 164
3 57 123 141
3 138 199 58
3 199 138 143
3 166 165 197
3 198 197 202
3 195 204 193
3 193 204 168
3 200 197 165
3 205 206 127
3 207 208 206
3 208 34 209
3 209 34 15
3 167 144 141
3 210 209 15
3 209 211 208
3 211 206 208
3 212 127 206
3 211 213 212
3 105 79 74
3 214 153 215
3 39 75 216
3 125 126 128
3 132 217 218
3 218 217 134
3 135 218 145
3 218 146 145
3 140 125 128
3 219 220 221
3 135 222 55
3 222 223 155
3 214 215 224
3 214 225 151
3 224 226 227
3 227 220 228
3 227 226 221
3 124 152 126
3 219 229 220
3 229 207 228
3 207 230 228
3 126 152 225
3 225 152 151
3 231 229 34
3 66 232 67
3 92 91 96
3 233 110 234
3 235 96 234
3 236 237 100
3 65 87 158
3 238 65 64
3 172 173 239
3 240 234 241
3 241 234 94
3 67 242 81
3 243 244 66
3 245 246 178
3 93 64 86
3 238 91 87
3 92 97 90
3 108 235 236
3 86 68 247
3 93 241 94
3 111 80 105
3 232 248 249
3 78 233 240
3 244 250 248
3 232 62 242
3 240 247 81
3 61 242 62
3 248 250 251
3 252 253 170
3 245 253 252
3 254 69 17
3 249 251 254
3 167 251 252
3 243 255 252
3 243 179 246
3 69 83 85
3 250 256 252
3 70 84 15
3 254 251 83
3 177 257 258
3 259 260 82
3 181 180 261
3 261 258 257
3 134 136 146
3 33 15 34
3 34 229 32
3 229 219 32
3 42 114 43
3 61 16 76
3 76 80 61
3 80 77 61
3 76 115 79
3 90 87 91
3 95 72 71
3 98 116 99
3 106 107 100
3 107 98 100
3 105 100 237
3 237 236 111
3 236 110 111
3 110 233 77
3 111 105 237
3 95 98 107
3 126 205 127
3 129 54 130
3 54 129 131
3 55 54 132
3 133 137 33
3 32 146 136
3 32 219 145
3 44 43 99
3 116 95 44
3 113 43 114
3 205 207 206
3 84 167 213
3 167 262 213
3 262 142 213
3 142 212 213
3 213 211 84
3 211 210 84
3 15 84 210
3 212 142 127
3 74 38 105
3 38 106 105
3 132 131 217
3 135 132 218
3 218 134 146
3 135 145 221
3 145 219 221
3 135 221 222
3 215 223 224
3 223 226 224
3 224 230 214
3 230 225 214
3 228 230 227
3 230 224 227
3 227 221 220
3 228 220 229
3 229 231 207
3 207 205 230
3 240 233 234
3 108 97 235
3 68 81 247
3 247 241 93
3 93 86 247
3 111 77 80
3 78 77 233
3 179 178 246
3 246 255 243
3 134 133 136
3 94 96 91
3 91 238 64
3 64 93 91
3 96 235 97
3 94 234 96
3 234 110 235
3 110 236 235
3 245 255 246
3 169 167 252
3 253 245 170
3 169 252 170
3 252 256 243
3 255 245 252
3 0 31 1
3 3 26 4
3 6 18 7
3 9 23 10
3 12 186 13
3 18 52 19
3 19 56 20
3 20 7 18
3 12 14 21
3 8 7 23
3 2 1 3
3 24 30 12
3 25 52 18
3 3 1 27
3 28 119 3
3 119 130 53
3 3 119 53
3 29 186 12
3 4 26 18
3 11 10 31
3 31 10 183
3 183 35 31
3 216 15 137
3 216 137 37
3 38 74 39
3 39 216 37
3 7 20 40
3 45 46 10
3 46 183 10
3 3 53 49
3 50 25 26
3 3 49 26
3 25 122 51
3 53 130 54
3 56 19 57
3 59 118 60
3 17 16 61
3 63 86 64
3 68 63 82
3 82 66 68
3 74 115 75
3 65 158 157
3 157 82 65
3 83 167 84
3 89 158 87
3 87 90 88
3 88 121 89
3 101 112 102
3 104 114 60
3 107 106 38
3 236 100 108
3 100 99 108
3 109 120 108
3 120 88 97
3 108 120 97
3 88 90 97
3 60 118 112
3 15 216 75
3 75 115 76
3 117 104 101
3 73 72 107
3 118 119 28
3 59 130 119
3 35 117 103
3 112 28 27
3 31 36 1
3 36 102 1
3 122 150 123
3 123 150 124
3 73 37 129
3 73 129 59
3 44 71 73
3 42 44 73
3 134 217 37
3 217 131 37
3 131 129 37
3 37 137 133
3 141 123 139
3 123 125 139
3 128 127 142
3 143 138 141
3 55 155 147
3 53 147 148
3 124 150 151
3 150 149 151
3 149 154 153
3 154 155 215
3 153 154 215
3 153 214 151
3 149 122 25
3 149 50 148
3 120 176 156
3 89 159 157
3 159 161 160
3 161 182 163
3 164 40 175
3 175 165 164
3 169 168 167
3 168 204 144
3 204 143 144
3 170 160 172
3 160 162 172
3 172 239 171
3 168 171 193
3 171 239 163
3 163 239 173
3 173 172 162
3 163 193 171
3 7 174 23
3 174 47 23
3 109 117 176
3 121 156 48
3 66 82 260
3 260 259 263
3 259 257 263
3 243 66 179
3 66 260 179
3 179 260 263
3 177 258 178
3 179 263 177
3 160 170 245
3 178 258 180
3 160 245 178
3 82 157 181
3 157 160 181
3 181 259 82
3 178 180 160
3 89 48 182
3 48 47 182
3 47 174 182
3 182 161 159
3 113 117 109
3 156 183 46
3 176 35 183
3 21 190 184
3 185 191 186
3 24 192 187
3 188 189 14
3 189 190 21
3 186 191 188
3 187 185 29
3 184 192 24
3 11 0 184
3 4 6 191
3 2 5 187
3 188 8 9
3 9 11 190
3 191 6 8
3 187 5 4
3 0 2 192
3 193 163 194
3 197 195 194
3 194 196 197
3 143 204 198
3 58 199 165
3 199 202 200
3 165 199 200
3 165 175 56
3 57 19 52
3 163 182 203
3 203 182 196
3 164 196 182
3 182 174 164
3 141 138 57
3 57 51 123
3 195 197 198
3 197 200 202
3 195 198 204
3 207 231 208
3 208 231 34
3 141 140 262
3 140 142 262
3 262 167 141
3 209 210 211
3 211 212 206
3 125 124 126
3 140 139 125
3 155 55 222
3 222 221 223
3 221 226 223
3 223 215 155
3 225 230 205
3 205 126 225
3 66 244 232
3 65 238 87
3 67 232 242
3 243 256 244
3 232 244 248
3 244 256 250
3 232 249 62
3 81 242 78
3 240 241 247
3 81 78 240
3 61 78 242
3 17 62 254
3 62 249 254
3 249 248 251
3 83 251 167
3 251 250 252
3 69 254 83
3 70 69 85
3 15 17 70
3 70 85 84
3 177 263 257
3 257 259 261
3 259 181 261
3 261 180 258
