ply
format ascii 1.0
comment Created by Blender 2.90.1 - www.blender.org
element vertex 264
property float x
property float y
property float z
element face 523
property list uchar uint vertex_indices
end_header
0.061081 0.441247 -0.966893
0.064500 0.449010 -0.973343
0.063010 0.448740 -0.966713
0.059259 0.456816 -0.973182
0.050701 0.455216 -0.966883
0.058172 0.455669 -0.966837
0.032741 0.459149 -0.976100
0.040681 0.444015 -0.973555
0.044291 0.444523 -0.967060
0.047630 0.438400 -0.966812
0.054830 0.436125 -0.974230
0.054849 0.437692 -0.966742
0.052788 0.446499 -0.878539
0.044285 0.444513 -0.878539
0.048064 0.438895 -0.878539
0.051588 0.443839 -1.028110
0.053895 0.442029 -1.027420
0.036436 0.454679 -1.024358
0.043036 0.452259 -0.973942
0.038271 0.451151 -0.976357
0.040834 0.445580 -0.974755
0.054774 0.437995 -0.878539
0.060614 0.441637 -0.878539
0.045722 0.435824 -0.973566
0.061292 0.448485 -0.878539
0.026172 0.466904 -0.986782
0.050406 0.457790 -0.974222
0.062972 0.451408 -0.974250
0.064300 0.455870 -0.974791
0.050803 0.455002 -0.878539
0.057351 0.453842 -0.878539
0.062495 0.440243 -0.973547
0.046889 0.462906 -1.029874
0.057016 0.456290 -1.029912
0.040155 0.455505 -1.027421
0.067335 0.439298 -0.978029
0.065111 0.444388 -0.974775
0.066098 0.456214 -1.021930
0.066544 0.459316 -1.021244
0.066925 0.456835 -1.014245
0.037669 0.440118 -0.974361
0.040527 0.437559 -0.974183
0.076027 0.452698 -0.983421
0.075652 0.450381 -0.985025
0.078159 0.470876 -0.987200
0.049024 0.435098 -0.974624
0.052254 0.429330 -0.977344
0.049181 0.431908 -0.976852
0.051450 0.426403 -0.979616
0.054281 0.464124 -0.978650
0.044236 0.460985 -0.977225
0.023536 0.464964 -0.990321
0.023798 0.464768 -0.986281
0.075801 0.483264 -1.002927
0.079996 0.486639 -1.008693
0.078200 0.488728 -1.009367
0.009225 0.438680 -0.990339
0.006962 0.439676 -0.997031
0.006436 0.437277 -0.997189
0.073347 0.460803 -0.978733
0.073636 0.452271 -0.976979
0.054312 0.439594 -1.025337
0.037266 0.453229 -1.026372
0.058096 0.411594 -1.000793
0.060702 0.411761 -0.997283
0.057433 0.410199 -0.992973
0.048465 0.432353 -1.020095
0.048943 0.432603 -1.020762
0.057988 0.411871 -1.001142
0.035730 0.447841 -1.004509
0.034464 0.449748 -1.026536
0.085967 0.478390 -1.003109
0.086568 0.477305 -1.004714
0.085773 0.476939 -1.008043
0.063853 0.452258 -1.030936
0.058154 0.451104 -1.026623
0.055640 0.443383 -1.026585
0.069129 0.436607 -1.018242
0.055998 0.430179 -1.020898
0.066368 0.450418 -1.031635
0.068465 0.442478 -1.024448
0.051181 0.431597 -1.019339
0.055955 0.411448 -1.000841
0.035048 0.447122 -1.004743
0.010938 0.433420 -1.020262
0.034490 0.447401 -1.004684
0.059168 0.411999 -1.000947
0.063073 0.410445 -0.991304
0.066452 0.432585 -0.987024
0.051063 0.424176 -0.981149
0.069716 0.413814 -0.993683
0.066234 0.413652 -0.999045
0.067796 0.415193 -0.999958
0.063085 0.413364 -1.001384
0.067422 0.415810 -1.001529
0.085953 0.473632 -1.004693
0.067558 0.415766 -1.001262
0.077074 0.427553 -0.997680
0.085094 0.469914 -1.006182
0.086820 0.468064 -1.004905
0.084407 0.467268 -1.007261
0.070255 0.448217 -0.976645
0.064692 0.449286 -0.975722
0.067366 0.446862 -0.977244
0.074995 0.447982 -0.980630
0.073114 0.451437 -1.025870
0.071065 0.461648 -1.022030
0.084125 0.470412 -1.008273
0.080518 0.450004 -0.991494
0.075128 0.448079 -0.983569
0.073237 0.435157 -1.009007
0.075029 0.441223 -1.014683
0.066152 0.453502 -0.975603
0.075884 0.448299 -0.984668
0.076705 0.450334 -0.981669
0.063770 0.452101 -1.031023
0.086086 0.472084 -1.001301
0.071504 0.445589 -0.979795
0.069571 0.457076 -0.976493
0.065891 0.462073 -0.975003
0.067552 0.433657 -0.985251
0.067072 0.432752 -0.985371
0.025694 0.466785 -0.990386
0.024059 0.463156 -0.997073
0.021072 0.464449 -1.001987
0.020596 0.463185 -1.002012
0.020385 0.462582 -1.015685
0.023918 0.461625 -1.018972
0.020353 0.462135 -1.015859
0.076390 0.473768 -1.013080
0.079644 0.482978 -0.998277
0.063361 0.471919 -1.024777
0.064051 0.470311 -1.024438
0.057674 0.457506 -1.029545
0.058238 0.460262 -1.029032
0.062315 0.472053 -1.024949
0.056815 0.459218 -1.029617
0.057110 0.454750 -1.030059
0.005629 0.436014 -1.001485
0.014899 0.458088 -1.006755
0.016179 0.458141 -1.011695
0.004722 0.436667 -1.007351
0.017935 0.457739 -1.016667
0.005386 0.435195 -1.003027
0.004543 0.435578 -1.007810
0.056966 0.464468 -1.028655
0.056614 0.462146 -1.029322
0.072339 0.488309 -1.009452
0.053339 0.465215 -0.983107
0.034646 0.469637 -0.986320
0.025618 0.465155 -0.997824
0.024560 0.475391 -1.007687
0.019904 0.467988 -1.009285
0.041499 0.474766 -0.995050
0.063574 0.483558 -1.005024
0.069921 0.485567 -1.013400
0.064782 0.434346 -0.980671
0.041586 0.421616 -0.984117
0.057522 0.409116 -0.989362
0.042269 0.422977 -0.982780
0.039960 0.423917 -0.985691
0.040633 0.425712 -0.984296
0.029571 0.413860 -0.997570
0.012413 0.421151 -1.007599
0.034469 0.436716 -0.980185
0.006751 0.433481 -0.997950
0.006944 0.427923 -0.998670
0.008256 0.436052 -1.018716
0.007199 0.430984 -1.016189
0.010574 0.430481 -1.018085
0.012543 0.428045 -1.017331
0.012023 0.428558 -1.017252
0.020378 0.420946 -1.007964
0.016350 0.420631 -1.007115
0.043302 0.434952 -0.974921
0.037012 0.442630 -0.974246
0.067092 0.436883 -0.981663
0.037468 0.415380 -1.007843
0.025336 0.418122 -1.005442
0.046726 0.417485 -1.014353
0.037090 0.415545 -0.996585
0.043724 0.417175 -0.990470
0.042399 0.429493 -0.980260
0.063931 0.435339 -0.977364
0.060751 0.441538 -0.960027
0.050803 0.455002 -0.960078
0.045089 0.451283 -0.878539
0.057494 0.454087 -0.960043
0.043856 0.444449 -0.959873
0.047690 0.437973 -0.959840
0.054774 0.437995 -0.960078
0.044972 0.451397 -0.960108
0.061303 0.448469 -0.960062
0.004594 0.430791 -1.009125
0.009943 0.423064 -1.003093
0.005540 0.429236 -1.003654
0.007613 0.427113 -0.998377
0.006091 0.428680 -1.001080
0.006557 0.432599 -1.001881
0.005741 0.435406 -1.001447
0.006769 0.433396 -0.998493
0.037481 0.444624 -0.982461
0.006790 0.432888 -1.000866
0.013643 0.420838 -1.001981
0.004408 0.432402 -1.008947
0.024797 0.462102 -1.019137
0.034718 0.456754 -1.023347
0.035557 0.457269 -1.023231
0.039142 0.455950 -1.026098
0.040124 0.455143 -1.027612
0.037610 0.445909 -1.029232
0.030847 0.451071 -1.024530
0.027231 0.452966 -1.023503
0.014407 0.447008 -1.022295
0.034696 0.477834 -1.007990
0.051523 0.483658 -1.010760
0.061202 0.450922 -1.032003
0.058487 0.464797 -1.028072
0.058926 0.464360 -1.028065
0.045996 0.463177 -1.029247
0.043437 0.464480 -1.026569
0.056358 0.476728 -1.023833
0.066286 0.485449 -1.017312
0.057529 0.485420 -1.017731
0.049776 0.482062 -1.013358
0.026310 0.474920 -1.014238
0.053757 0.479067 -1.020999
0.051118 0.473276 -1.023420
0.040883 0.466984 -1.024213
0.040240 0.457293 -1.026480
0.035676 0.469300 -1.021213
0.039420 0.456175 -1.026184
0.040232 0.441131 -1.027232
0.068868 0.430339 -1.012665
0.069281 0.420893 -1.005824
0.082133 0.441045 -1.004899
0.085350 0.452718 -1.005861
0.080370 0.457367 -1.016889
0.061250 0.411638 -0.995727
0.020130 0.420926 -1.008969
0.058661 0.422847 -1.016575
0.068244 0.417120 -1.005407
0.043141 0.441573 -1.021325
0.044698 0.430793 -1.019608
0.040051 0.441106 -1.027341
0.022341 0.420894 -1.007931
0.043089 0.426963 -1.017638
0.059032 0.418862 -1.010283
0.033665 0.448617 -1.026700
0.033697 0.448688 -1.026686
0.033630 0.448392 -1.026768
0.032814 0.449593 -1.025975
0.023181 0.423856 -1.020031
0.019867 0.422823 -1.018218
0.032607 0.449861 -1.025770
0.033953 0.433560 -1.026499
0.038994 0.440639 -1.027699
0.040508 0.412771 -1.002868
0.036382 0.413728 -1.003402
0.046245 0.411564 -1.002328
0.049416 0.415879 -1.008054
0.039634 0.414404 -0.998190
0.010402 0.447093 -1.015096
0.042428 0.416835 -1.009495
3 0 1 2
3 3 4 5
3 6 7 8
3 9 10 11
3 12 13 14
3 15 16 17
3 18 19 20
3 12 21 22
3 8 23 9
3 2 3 5
3 24 12 22
3 25 18 26
3 3 27 28
3 29 12 30
3 4 18 6
3 11 31 0
3 32 33 34
3 35 36 31
3 37 38 39
3 7 40 41
3 42 43 44
3 10 23 45
3 46 47 48
3 49 50 26
3 25 51 52
3 53 54 55
3 56 57 58
3 59 60 42
3 17 61 62
3 63 64 65
3 66 67 68
3 17 69 70
3 71 72 73
3 74 75 39
3 15 76 16
3 77 78 61
3 76 79 80
3 68 67 81
3 82 63 65
3 83 84 85
3 68 86 63
3 87 88 89
3 90 91 92
3 93 94 91
3 95 71 44
3 96 97 92
3 98 99 100
3 101 102 103
3 104 60 101
3 100 105 106
3 107 38 37
3 108 99 109
3 110 77 111
3 60 112 101
3 79 105 80
3 99 43 113
3 60 114 42
3 79 115 74
3 75 76 15
3 95 116 98
3 95 107 72
3 117 101 103
3 103 102 36
3 117 113 104
3 73 107 37
3 118 28 112
3 59 119 118
3 35 103 36
3 112 27 102
3 88 120 121
3 102 27 1
3 122 123 51
3 123 124 125
3 126 127 128
3 59 42 73
3 129 130 59
3 54 131 132
3 133 134 37
3 55 132 135
3 133 33 136
3 33 137 15
3 58 57 138
3 139 140 141
3 128 142 140
3 143 141 144
3 32 136 33
3 32 145 146
3 55 147 53
3 53 148 49
3 122 149 150
3 151 152 124
3 149 153 151
3 49 148 50
3 149 25 50
3 149 148 154
3 154 147 155
3 154 148 147
3 120 156 121
3 89 157 158
3 159 160 157
3 160 161 162
3 161 163 162
3 164 41 40
3 165 166 164
3 144 167 168
3 169 170 171
3 171 170 172
3 173 162 163
3 171 168 169
3 41 174 7
3 47 45 23
3 40 20 175
3 175 20 56
3 109 176 120
3 121 48 89
3 177 178 179
3 180 181 160
3 159 89 182
3 176 117 35
3 45 47 46
3 113 109 99
3 156 46 48
3 44 99 116
3 176 183 156
3 113 114 104
3 21 184 22
3 185 186 29
3 24 187 30
3 188 14 13
3 189 21 14
3 186 188 13
3 187 29 30
3 184 24 22
3 11 184 190
3 4 191 185
3 2 187 192
3 188 9 189
3 9 190 189
3 191 8 188
3 187 4 185
3 0 192 184
3 193 194 195
3 196 166 197
3 166 196 164
3 143 198 199
3 165 56 58
3 200 201 202
3 202 199 198
3 57 52 51
3 163 203 194
3 203 196 194
3 174 41 164
3 57 123 141
3 138 199 58
3 199 138 143
3 166 165 197
3 198 197 202
3 195 204 193
3 193 204 168
3 200 197 165
3 205 206 127
3 207 208 206
3 208 34 209
3 209 34 15
3 167 144 141
3 210 209 15
3 209 211 208
3 211 206 208
3 212 127 206
3 211 213 212
3 105 79 74
3 214 153 215
3 39 75 216
3 125 126 128
3 132 217 218
3 218 217 134
3 135 218 145
3 218 146 145
3 140 125 128
3 219 220 221
3 135 222 55
3 222 223 155
3 214 215 224
3 214 225 151
3 224 226 227
3 227 220 228
3 227 226 221
3 124 152 126
3 219 229 220
3 229 207 228
3 207 230 228
3 126 152 225
3 225 152 151
3 231 229 34
3 66 232 67
3 92 91 96
3 233 110 234
3 235 96 234
3 236 237 100
3 65 87 158
3 238 65 64
3 172 173 239
3 240 234 241
3 241 234 94
3 67 242 81
3 243 244 66
3 245 246 178
3 93 64 86
3 238 91 87
3 92 97 90
3 108 235 236
3 86 68 247
3 93 241 94
3 111 80 105
3 232 248 249
3 78 233 240
3 244 250 248
3 232 62 242
3 240 247 81
3 61 242 62
3 248 250 251
3 252 253 170
3 245 253 252
3 254 69 17
3 249 251 254
3 167 251 252
3 243 255 252
3 243 179 246
3 69 83 85
3 250 256 252
3 70 84 15
3 254 251 83
3 177 257 258
3 259 260 82
3 181 180 261
3 261 258 257
3 134 136 146
3 33 15 34
3 34 229 32
3 229 219 32
3 42 114 43
3 61 16 76
3 76 80 61
3 80 77 61
3 76 115 79
3 90 87 91
3 95 72 71
3 98 116 99
3 106 107 100
3 107 98 100
3 105 100 237
3 237 236 111
3 236 110 111
3 110 233 77
3 111 105 237
3 95 98 107
3 126 205 127
3 129 54 130
3 54 129 131
3 55 54 132
3 133 137 33
3 32 146 136
3 32 219 145
3 44 43 99
3 116 95 44
3 113 43 114
3 205 207 206
3 84 167 213
3 167 262 213
3 262 142 213
3 142 212 213
3 213 211 84
3 211 210 84
3 15 84 210
3 212 142 127
3 74 38 105
3 38 106 105
3 132 131 217
3 135 132 218
3 218 134 146
3 135 145 221
3 145 219 221
3 135 221 222
3 215 223 224
3 223 226 224
3 224 230 214
3 230 225 214
3 228 230 227
3 230 224 227
3 227 221 220
3 228 220 229
3 229 231 207
3 207 205 230
3 240 233 234
3 108 97 235
3 68 81 247
3 247 241 93
3 93 86 247
3 111 77 80
3 78 77 233
3 179 178 246
3 246 255 243
3 134 133 136
3 94 96 91
3 91 238 64
3 64 93 91
3 96 235 97
3 94 234 96
3 234 110 235
3 110 236 235
3 245 255 246
3 169 167 252
3 253 245 170
3 169 252 170
3 252 256 243
3 255 245 252
3 0 31 1
3 3 26 4
3 6 18 7
3 9 23 10
3 12 186 13
3 18 52 19
3 19 56 20
3 20 7 18
3 12 14 21
3 8 7 23
3 2 1 3
3 24 30 12
3 25 52 18
3 3 1 27
3 28 119 3
3 119 130 53
3 3 119 53
3 29 186 12
3 4 26 18
3 11 10 31
3 31 10 183
3 183 35 31
3 216 15 137
3 216 137 37
3 38 74 39
3 39 216 37
3 7 20 40
3 45 46 10
3 46 183 10
3 3 53 49
3 50 25 26
3 3 49 26
3 25 122 51
3 53 130 54
3 56 19 57
3 59 118 60
3 17 16 61
3 63 86 64
3 68 63 82
3 82 66 68
3 74 115 75
3 65 158 157
3 157 82 65
3 83 167 84
3 89 158 87
3 87 90 88
3 88 121 89
3 101 112 102
3 104 114 60
3 107 106 38
3 236 100 108
3 100 99 108
3 109 120 108
3 120 88 97
3 108 120 97
3 88 90 97
3 60 118 112
3 15 216 75
3 75 115 76
3 117 104 101
3 73 72 107
3 118 119 28
3 59 130 119
3 35 117 103
3 112 28 27
3 31 36 1
3 36 102 1
3 122 150 123
3 123 150 124
3 73 37 129
3 73 129 59
3 44 71 73
3 42 44 73
3 134 217 37
3 217 131 37
3 131 129 37
3 37 137 133
3 141 123 139
3 123 125 139
3 128 127 142
3 143 138 141
3 55 155 147
3 53 147 148
3 124 150 151
3 150 149 151
3 149 154 153
3 154 155 215
3 153 154 215
3 153 214 151
3 149 122 25
3 149 50 148
3 120 176 156
3 89 159 157
3 159 161 160
3 161 182 163
3 164 40 175
3 175 165 164
3 169 168 167
3 168 204 144
3 204 143 144
3 170 160 172
3 160 162 172
3 172 239 171
3 168 171 193
3 171 239 163
3 163 239 173
3 173 172 162
3 163 193 171
3 7 174 23
3 174 47 23
3 109 117 176
3 121 156 48
3 66 82 260
3 260 259 263
3 259 257 263
3 243 66 179
3 66 260 179
3 179 260 263
3 177 258 178
3 179 263 177
3 160 170 245
3 178 258 180
3 160 245 178
3 82 157 181
3 157 160 181
3 181 259 82
3 178 180 160
3 89 48 182
3 48 47 182
3 47 174 182
3 182 161 159
3 113 117 109
3 156 183 46
3 176 35 183
3 21 190 184
3 185 191 186
3 24 192 187
3 188 189 14
3 189 190 21
3 186 191 188
3 187 185 29
3 184 192 24
3 11 0 184
3 4 6 191
3 2 5 187
3 188 8 9
3 9 11 190
3 191 6 8
3 187 5 4
3 0 2 192
3 193 163 194
3 197 195 194
3 194 196 197
3 143 204 198
3 58 199 165
3 199 202 200
3 165 199 200
3 165 175 56
3 57 19 52
3 163 182 203
3 203 182 196
3 164 196 182
3 182 174 164
3 141 138 57
3 57 51 123
3 195 197 198
3 197 200 202
3 195 198 204
3 207 231 208
3 208 231 34
3 141 140 262
3 140 142 262
3 262 167 141
3 209 210 211
3 211 212 206
3 125 124 126
3 140 139 125
3 155 55 222
3 222 221 223
3 221 226 223
3 223 215 155
3 225 230 205
3 205 126 225
3 66 244 232
3 65 238 87
3 67 232 242
3 243 256 244
3 232 244 248
3 244 256 250
3 232 249 62
3 81 242 78
3 240 241 247
3 81 78 240
3 61 78 242
3 17 62 254
3 62 249 254
3 249 248 251
3 83 251 167
3 251 250 252
3 69 254 83
3 70 69 85
3 15 17 70
3 70 85 84
3 177 263 257
3 257 259 261
3 259 181 261
3 261 180 258
