ply
format ascii 1.0
comment Created by Blender 2.90.1 - www.blender.org
element vertex 264
property float x
property float y
property float z
element face 523
property list uchar uint vertex_indices
end_header
1.820256 9.668930 -4.065669
1.832398 9.733430 -4.149614
1.843610 9.667128 -4.139434
1.918214 9.731818 -4.188044
1.982312 9.668831 -4.129127
1.921357 9.668375 -4.172558
2.155465 9.761003 -4.067307
2.007922 9.735554 -3.981035
1.980003 9.670604 -4.004475
1.919238 9.668122 -3.970243
1.846127 9.742298 -3.989106
1.854271 9.667424 -4.002494
1.918412 8.785387 -4.066260
1.980001 8.785387 -4.004357
1.918185 8.785387 -3.976742
1.914501 10.281104 -4.037340
1.885338 10.274204 -4.034219
2.100437 10.243579 -4.048979
2.031645 9.739417 -4.063426
2.066179 9.763572 -4.028779
2.014927 9.747552 -3.995117
1.856509 8.785387 -4.004672
1.826283 8.785387 -4.066495
1.921776 9.735661 -3.938289
1.856823 8.785387 -4.128163
2.252261 9.867825 -4.098258
1.998452 9.742221 -4.149393
1.858067 9.742501 -4.161860
1.870448 9.747906 -4.206739
1.980315 8.785387 -4.127850
1.918632 8.785387 -4.152710
1.802943 9.735473 -4.064642
2.055389 10.298739 -4.174133
1.934447 10.299125 -4.171692
2.073278 10.274209 -4.075687
1.756895 9.780293 -4.082282
1.802724 9.747750 -4.113664
1.857024 10.219298 -4.219178
1.869677 10.212441 -4.247846
1.853304 10.142452 -4.228823
2.012823 9.743608 -3.932025
1.975018 9.741835 -3.925472
1.754189 9.834209 -4.241982
1.745087 9.850255 -4.220342
1.832436 9.872005 -4.407439
1.889926 9.746242 -3.949625
1.831966 9.773442 -3.917832
1.871688 9.768517 -3.923402
1.823272 9.796161 -3.888750
1.999150 9.786501 -4.223638
2.067706 9.772253 -4.143792
2.264341 9.903213 -4.067841
2.261079 9.862807 -4.067566
1.918076 10.029274 -4.499993
1.900394 10.086928 -4.550844
1.926693 10.093674 -4.559042
2.246418 9.903387 -3.769102
2.270885 9.970305 -3.765556
2.262641 9.971894 -3.742425
1.819865 9.787333 -4.296510
1.772206 9.769794 -4.225684
1.868899 10.253365 -4.015775
2.085716 10.263723 -4.041075
1.688433 10.007929 -3.798383
1.667222 9.972832 -3.813598
1.686665 9.929726 -3.783039
1.880118 10.200949 -3.923383
1.877390 10.207617 -3.928040
1.690816 10.011424 -3.800155
2.070187 10.045091 -3.987243
2.091032 10.265365 -3.996706
1.806046 10.031094 -4.512535
1.795195 10.047144 -4.506512
1.799997 10.080433 -4.499201
1.855103 10.309363 -4.173735
1.897318 10.266229 -4.133748
1.877723 10.265852 -4.054946
1.727417 10.182417 -4.068963
1.804715 10.208983 -3.944873
1.824018 10.316353 -4.171455
1.764165 10.244476 -4.115236
1.853082 10.193390 -3.931369
1.705814 10.008407 -3.785796
2.072165 10.047427 -3.977537
2.204016 10.202617 -3.733568
2.078367 10.046839 -3.976943
1.681494 10.009474 -3.807491
1.640137 9.913042 -3.815006
1.728809 9.870235 -4.020668
1.814752 9.811489 -3.867812
1.601656 9.936830 -3.878775
1.630330 9.990446 -3.858952
1.625242 9.999578 -3.880301
1.655499 10.013840 -3.839822
1.631685 10.015292 -3.883555
1.780939 10.046932 -4.472106
1.630300 10.012619 -3.883898
1.612061 9.976805 -4.034288
1.768530 10.061818 -4.436026
1.744089 10.049049 -4.429483
1.760336 10.072609 -4.409946
1.779390 9.766452 -4.173390
1.832238 9.757219 -4.152977
1.796713 9.772444 -4.146585
1.737953 9.806301 -4.196519
1.772213 10.258701 -4.215851
1.843696 10.220299 -4.291583
1.779384 10.082729 -4.435112
1.701827 9.914939 -4.242925
1.737338 9.835694 -4.198047
1.684896 10.090067 -4.078434
1.701849 10.146835 -4.139375
1.842194 9.756027 -4.196465
1.732089 9.846684 -4.203919
1.735913 9.816695 -4.225526
1.854968 10.310225 -4.171959
1.771616 10.013014 -4.459682
1.754869 9.797949 -4.157723
1.832138 9.764935 -4.244895
1.889828 9.750029 -4.267771
1.725162 9.852507 -4.035587
1.724435 9.853707 -4.025373
2.255688 9.903858 -4.094720
2.250319 9.970726 -4.055276
2.282501 10.019873 -4.050415
2.279840 10.020123 -4.037173
2.278437 10.156846 -4.030946
2.243400 10.189720 -4.041548
2.276342 10.158586 -4.026977
1.862771 10.130795 -4.422587
1.883976 9.982767 -4.517939
1.963460 10.247769 -4.337856
1.949091 10.244377 -4.327884
1.935309 10.295453 -4.185496
1.945132 10.290318 -4.211856
1.973039 10.249487 -4.333454
1.951665 10.296172 -4.195460
1.925486 10.300587 -4.159137
2.262788 10.014845 -3.727438
2.301149 10.067547 -3.963761
2.290577 10.116947 -3.970993
2.273938 10.073510 -3.728167
2.273549 10.166669 -3.976883
2.260506 10.030269 -3.719206
2.269686 10.078104 -3.717984
1.978206 10.286552 -4.240783
1.968882 10.293221 -4.219229
1.974177 10.094524 -4.524431
2.012920 9.831075 -4.227901
2.194883 9.863200 -4.166342
2.247694 9.978245 -4.080496
2.310911 10.076875 -4.161695
2.311163 10.092846 -4.074233
2.163948 9.950496 -4.246159
2.023336 10.050238 -4.437696
1.980156 10.133999 -4.488365
1.752301 9.806707 -4.026760
1.881553 9.841173 -3.795883
1.680169 9.893624 -3.774326
1.882980 9.827802 -3.811038
1.907541 9.856910 -3.806772
1.911347 9.842964 -3.825563
1.942349 9.975698 -3.666432
2.126490 10.075987 -3.637343
2.021929 9.801854 -3.886215
2.239849 9.979501 -3.711903
2.208760 9.986699 -3.665784
2.240710 10.187164 -3.741678
2.222816 10.161885 -3.693102
2.191530 10.180850 -3.706719
2.161923 10.173306 -3.696496
2.169049 10.172523 -3.698091
2.057855 10.079637 -3.677814
2.090352 10.071149 -3.653795
1.937669 9.749212 -3.918069
2.031699 9.742464 -3.949848
1.746157 9.816634 -4.060510
1.883435 10.078426 -3.721175
2.000845 10.054424 -3.680137
1.816079 10.143534 -3.788083
1.887519 9.965849 -3.720569
1.839895 9.904705 -3.769548
1.916406 9.802596 -3.866991
1.764780 9.773642 -4.030672
1.824603 9.600271 -4.066384
1.980315 9.600780 -4.127850
2.009060 8.785387 -4.066030
1.918718 9.600430 -4.155548
1.983304 9.598732 -4.001540
1.916466 9.598395 -3.966940
1.856509 9.600780 -4.004672
2.010655 9.601077 -4.066376
1.856647 9.600616 -4.128082
2.243889 10.091253 -3.677659
2.157583 10.030935 -3.640477
2.227620 10.036536 -3.669489
2.198791 9.983768 -3.662462
2.220007 10.010796 -3.667685
2.236816 10.018807 -3.703396
2.258615 10.014467 -3.722880
2.239250 9.984926 -3.711276
2.038291 9.824609 -3.969241
2.236381 10.008664 -3.707080
2.114406 10.019808 -3.641207
2.253999 10.089474 -3.690333
2.238477 10.191374 -4.050248
2.126008 10.233469 -4.057470
2.121614 10.232310 -4.066281
2.084224 10.260981 -4.074091
2.071623 10.276116 -4.072452
2.044009 10.292319 -3.980820
2.128719 10.245299 -3.988765
2.169419 10.235028 -3.985672
2.246610 10.222955 -3.867190
2.237899 10.079904 -4.236118
2.126058 10.107595 -4.374688
1.870503 10.320028 -4.148361
1.967046 10.280723 -4.251635
1.961011 10.280647 -4.250255
2.064393 10.292469 -4.171705
2.093002 10.265692 -4.169197
2.048329 10.238331 -4.341537
2.010353 10.173116 -4.468099
2.084462 10.177308 -4.421457
2.132409 10.133576 -4.351888
2.293571 10.142379 -4.166974
2.082786 10.209988 -4.347589
2.074479 10.234203 -4.284492
2.127928 10.242130 -4.176894
2.082026 10.264803 -4.091301
2.184362 10.212132 -4.168948
2.083059 10.261840 -4.077478
1.996452 10.272323 -3.954196
1.696420 10.126649 -4.014429
1.642858 10.058236 -3.936504
1.640661 10.048985 -4.175512
1.675227 10.058609 -4.291553
1.742096 10.168886 -4.304586
1.661919 9.957270 -3.815463
2.059855 10.089689 -3.676324
1.743272 10.165752 -3.896799
1.631661 10.054069 -3.899013
1.974125 10.213245 -3.973369
1.903799 10.196084 -3.890195
1.997857 10.273411 -3.953032
2.040937 10.079307 -3.687771
1.897149 10.176381 -3.849186
1.719007 10.102826 -3.864974
2.091809 10.266999 -3.982882
2.091919 10.266859 -3.983660
2.090923 10.267676 -3.980793
2.104200 10.259754 -3.986655
2.049505 10.200315 -3.717340
2.072140 10.182179 -3.691024
2.107377 10.257698 -3.987824
2.009578 10.264987 -3.856717
2.004346 10.276986 -3.943468
1.843832 10.028685 -3.715157
1.883886 10.034022 -3.701411
1.788781 10.023280 -3.735323
1.784749 10.080539 -3.788720
1.859891 9.981899 -3.724377
2.281020 10.150957 -3.846684
1.849077 10.094952 -3.759797
3 0 1 2
3 3 4 5
3 6 7 8
3 9 10 11
3 12 13 14
3 15 16 17
3 18 19 20
3 12 21 22
3 8 23 9
3 2 3 5
3 24 12 22
3 25 18 26
3 3 27 28
3 29 12 30
3 4 18 6
3 11 31 0
3 32 33 34
3 35 36 31
3 37 38 39
3 7 40 41
3 42 43 44
3 10 23 45
3 46 47 48
3 49 50 26
3 25 51 52
3 53 54 55
3 56 57 58
3 59 60 42
3 17 61 62
3 63 64 65
3 66 67 68
3 17 69 70
3 71 72 73
3 74 75 39
3 15 76 16
3 77 78 61
3 76 79 80
3 68 67 81
3 82 63 65
3 83 84 85
3 68 86 63
3 87 88 89
3 90 91 92
3 93 94 91
3 95 71 44
3 96 97 92
3 98 99 100
3 101 102 103
3 104 60 101
3 100 105 106
3 107 38 37
3 108 99 109
3 110 77 111
3 60 112 101
3 79 105 80
3 99 43 113
3 60 114 42
3 79 115 74
3 75 76 15
3 95 116 98
3 95 107 72
3 117 101 103
3 103 102 36
3 117 113 104
3 73 107 37
3 118 28 112
3 59 119 118
3 35 103 36
3 112 27 102
3 88 120 121
3 102 27 1
3 122 123 51
3 123 124 125
3 126 127 128
3 59 42 73
3 129 130 59
3 54 131 132
3 133 134 37
3 55 132 135
3 133 33 136
3 33 137 15
3 58 57 138
3 139 140 141
3 128 142 140
3 143 141 144
3 32 136 33
3 32 145 146
3 55 147 53
3 53 148 49
3 122 149 150
3 151 152 124
3 149 153 151
3 49 148 50
3 149 25 50
3 149 148 154
3 154 147 155
3 154 148 147
3 120 156 121
3 89 157 158
3 159 160 157
3 160 161 162
3 161 163 162
3 164 41 40
3 165 166 164
3 144 167 168
3 169 170 171
3 171 170 172
3 173 162 163
3 171 168 169
3 41 174 7
3 47 45 23
3 40 20 175
3 175 20 56
3 109 176 120
3 121 48 89
3 177 178 179
3 180 181 160
3 159 89 182
3 176 117 35
3 45 47 46
3 113 109 99
3 156 46 48
3 44 99 116
3 176 183 156
3 113 114 104
3 21 184 22
3 185 186 29
3 24 187 30
3 188 14 13
3 189 21 14
3 186 188 13
3 187 29 30
3 184 24 22
3 11 184 190
3 4 191 185
3 2 187 192
3 188 9 189
3 9 190 189
3 191 8 188
3 187 4 185
3 0 192 184
3 193 194 195
3 196 166 197
3 166 196 164
3 143 198 199
3 165 56 58
3 200 201 202
3 202 199 198
3 57 52 51
3 163 203 194
3 203 196 194
3 174 41 164
3 57 123 141
3 138 199 58
3 199 138 143
3 166 165 197
3 198 197 202
3 195 204 193
3 193 204 168
3 200 197 165
3 205 206 127
3 207 208 206
3 208 34 209
3 209 34 15
3 167 144 141
3 210 209 15
3 209 211 208
3 211 206 208
3 212 127 206
3 211 213 212
3 105 79 74
3 214 153 215
3 39 75 216
3 125 126 128
3 132 217 218
3 218 217 134
3 135 218 145
3 218 146 145
3 140 125 128
3 219 220 221
3 135 222 55
3 222 223 155
3 214 215 224
3 214 225 151
3 224 226 227
3 227 220 228
3 227 226 221
3 124 152 126
3 219 229 220
3 229 207 228
3 207 230 228
3 126 152 225
3 225 152 151
3 231 229 34
3 66 232 67
3 92 91 96
3 233 110 234
3 235 96 234
3 236 237 100
3 65 87 158
3 238 65 64
3 172 173 239
3 240 234 241
3 241 234 94
3 67 242 81
3 243 244 66
3 245 246 178
3 93 64 86
3 238 91 87
3 92 97 90
3 108 235 236
3 86 68 247
3 93 241 94
3 111 80 105
3 232 248 249
3 78 233 240
3 244 250 248
3 232 62 242
3 240 247 81
3 61 242 62
3 248 250 251
3 252 253 170
3 245 253 252
3 254 69 17
3 249 251 254
3 167 251 252
3 243 255 252
3 243 179 246
3 69 83 85
3 250 256 252
3 70 84 15
3 254 251 83
3 177 257 258
3 259 260 82
3 181 180 261
3 261 258 257
3 134 136 146
3 33 15 34
3 34 229 32
3 229 219 32
3 42 114 43
3 61 16 76
3 76 80 61
3 80 77 61
3 76 115 79
3 90 87 91
3 95 72 71
3 98 116 99
3 106 107 100
3 107 98 100
3 105 100 237
3 237 236 111
3 236 110 111
3 110 233 77
3 111 105 237
3 95 98 107
3 126 205 127
3 129 54 130
3 54 129 131
3 55 54 132
3 133 137 33
3 32 146 136
3 32 219 145
3 44 43 99
3 116 95 44
3 113 43 114
3 205 207 206
3 84 167 213
3 167 262 213
3 262 142 213
3 142 212 213
3 213 211 84
3 211 210 84
3 15 84 210
3 212 142 127
3 74 38 105
3 38 106 105
3 132 131 217
3 135 132 218
3 218 134 146
3 135 145 221
3 145 219 221
3 135 221 222
3 215 223 224
3 223 226 224
3 224 230 214
3 230 225 214
3 228 230 227
3 230 224 227
3 227 221 220
3 228 220 229
3 229 231 207
3 207 205 230
3 240 233 234
3 108 97 235
3 68 81 247
3 247 241 93
3 93 86 247
3 111 77 80
3 78 77 233
3 179 178 246
3 246 255 243
3 134 133 136
3 94 96 91
3 91 238 64
3 64 93 91
3 96 235 97
3 94 234 96
3 234 110 235
3 110 236 235
3 245 255 246
3 169 167 252
3 253 245 170
3 169 252 170
3 252 256 243
3 255 245 252
3 0 31 1
3 3 26 4
3 6 18 7
3 9 23 10
3 12 186 13
3 18 52 19
3 19 56 20
3 20 7 18
3 12 14 21
3 8 7 23
3 2 1 3
3 24 30 12
3 25 52 18
3 3 1 27
3 28 119 3
3 119 130 53
3 3 119 53
3 29 186 12
3 4 26 18
3 11 10 31
3 31 10 183
3 183 35 31
3 216 15 137
3 216 137 37
3 38 74 39
3 39 216 37
3 7 20 40
3 45 46 10
3 46 183 10
3 3 53 49
3 50 25 26
3 3 49 26
3 25 122 51
3 53 130 54
3 56 19 57
3 59 118 60
3 17 16 61
3 63 86 64
3 68 63 82
3 82 66 68
3 74 115 75
3 65 158 157
3 157 82 65
3 83 167 84
3 89 158 87
3 87 90 88
3 88 121 89
3 101 112 102
3 104 114 60
3 107 106 38
3 236 100 108
3 100 99 108
3 109 120 108
3 120 88 97
3 108 120 97
3 88 90 97
3 60 118 112
3 15 216 75
3 75 115 76
3 117 104 101
3 73 72 107
3 118 119 28
3 59 130 119
3 35 117 103
3 112 28 27
3 31 36 1
3 36 102 1
3 122 150 123
3 123 150 124
3 73 37 129
3 73 129 59
3 44 71 73
3 42 44 73
3 134 217 37
3 217 131 37
3 131 129 37
3 37 137 133
3 141 123 139
3 123 125 139
3 128 127 142
3 143 138 141
3 55 155 147
3 53 147 148
3 124 150 151
3 150 149 151
3 149 154 153
3 154 155 215
3 153 154 215
3 153 214 151
3 149 122 25
3 149 50 148
3 120 176 156
3 89 159 157
3 159 161 160
3 161 182 163
3 164 40 175
3 175 165 164
3 169 168 167
3 168 204 144
3 204 143 144
3 170 160 172
3 160 162 172
3 172 239 171
3 168 171 193
3 171 239 163
3 163 239 173
3 173 172 162
3 163 193 171
3 7 174 23
3 174 47 23
3 109 117 176
3 121 156 48
3 66 82 260
3 260 259 263
3 259 257 263
3 243 66 179
3 66 260 179
3 179 260 263
3 177 258 178
3 179 263 177
3 160 170 245
3 178 258 180
3 160 245 178
3 82 157 181
3 157 160 181
3 181 259 82
3 178 180 160
3 89 48 182
3 48 47 182
3 47 174 182
3 182 161 159
3 113 117 109
3 156 183 46
3 176 35 183
3 21 190 184
3 185 191 186
3 24 192 187
3 188 189 14
3 189 190 21
3 186 191 188
3 187 185 29
3 184 192 24
3 11 0 184
3 4 6 191
3 2 5 187
3 188 8 9
3 9 11 190
3 191 6 8
3 187 5 4
3 0 2 192
3 193 163 194
3 197 195 194
3 194 196 197
3 143 204 198
3 58 199 165
3 199 202 200
3 165 199 200
3 165 175 56
3 57 19 52
3 163 182 203
3 203 182 196
3 164 196 182
3 182 174 164
3 141 138 57
3 57 51 123
3 195 197 198
3 197 200 202
3 195 198 204
3 207 231 208
3 208 231 34
3 141 140 262
3 140 142 262
3 262 167 141
3 209 210 211
3 211 212 206
3 125 124 126
3 140 139 125
3 155 55 222
3 222 221 223
3 221 226 223
3 223 215 155
3 225 230 205
3 205 126 225
3 66 244 232
3 65 238 87
3 67 232 242
3 243 256 244
3 232 244 248
3 244 256 250
3 232 249 62
3 81 242 78
3 240 241 247
3 81 78 240
3 61 78 242
3 17 62 254
3 62 249 254
3 249 248 251
3 83 251 167
3 251 250 252
3 69 254 83
3 70 69 85
3 15 17 70
3 70 85 84
3 177 263 257
3 257 259 261
3 259 181 261
3 261 180 258
