ply
format ascii 1.0
comment Created by Blender 2.90.1 - www.blender.org
element vertex 124
property float x
property float y
property float z
element face 92
property list uchar uint vertex_indices
end_header
0.052376 4.037272 0.005549
-0.029064 3.379361 0.509060
-0.368828 3.382970 0.228240
-0.121034 4.044044 0.061390
0.000000 -0.300000 0.416001
0.000000 1.947180 0.416001
-0.300000 1.947180 0.300000
-0.300000 -0.300000 0.300000
-0.436893 -0.300000 0.000000
-0.436893 1.947180 0.000000
-0.300000 1.947180 -0.300000
-0.300000 -0.300000 -0.300000
0.000000 -0.300000 0.000000
0.466692 -0.300000 0.000000
0.300000 -0.300000 0.300000
0.466692 1.947180 0.000000
0.300000 1.947180 0.300000
0.000000 -0.300000 -0.456488
0.000000 1.947180 -0.456488
0.300000 1.947180 -0.300000
0.300000 -0.300000 -0.300000
-0.000120 2.310806 -1.781631
1.799190 2.309915 -0.001453
0.292723 1.947180 0.302814
-0.396870 3.868018 0.912908
-0.101931 3.796167 1.008573
0.000402 2.284684 1.764847
-0.942175 1.960595 0.857953
-1.436977 2.276410 0.022178
-1.439748 2.253631 0.020244
-1.590390 2.294711 -0.025576
0.011309 4.074726 0.165905
-0.154180 3.846050 0.836615
1.001324 2.040716 0.895206
-0.001461 2.347428 1.691911
0.468639 4.036846 0.593042
0.802257 4.050620 0.259390
0.672876 4.010312 0.122703
0.234192 4.036702 0.050942
-1.229927 2.081746 -0.265987
-0.000943 2.349427 -1.733932
-1.464422 3.452980 -0.665287
-1.493072 3.086876 -0.624656
-1.603310 3.355289 -0.044601
-0.945313 4.010456 0.212112
0.899614 2.080971 -0.858717
1.731844 2.357038 -0.007111
0.046878 3.978732 -0.107227
-0.061548 3.914359 -0.160338
-1.513002 2.375436 -0.016613
1.142976 2.502451 1.129539
0.717355 2.621275 1.487080
1.728078 2.367666 -0.004560
1.026590 2.386869 -0.924179
1.141558 2.421681 -0.771670
-1.442529 2.687004 -0.669066
-1.262246 2.698816 -0.900943
-1.172311 2.638057 -0.951949
-0.576745 2.899735 -1.483997
-0.336511 2.414542 -1.550825
-0.293179 2.967459 -1.507851
-0.170736 2.966285 -1.504247
-1.038831 2.407189 1.100542
-1.175490 2.289799 0.464545
-1.722409 3.082033 0.353184
-1.600571 3.185581 1.054897
-0.934967 2.981022 1.587437
-1.529032 2.761042 -0.501064
-1.450559 3.037477 -0.703638
1.156149 2.813869 -1.028771
1.404874 2.787076 -0.767970
1.183453 2.673095 -0.615959
1.455346 3.059669 -0.369922
1.607944 3.353189 0.054822
1.245191 3.413261 -1.128589
1.506096 3.455232 -0.593260
-0.104577 3.292684 -1.319593
-0.662056 3.525725 -1.300212
-0.409921 3.623677 -0.756014
-0.041822 3.515229 -0.615760
0.044063 3.290523 -0.843939
-1.400331 3.728495 -0.573921
-1.314712 3.673876 -0.903890
-0.755138 4.054916 -0.383093
0.458214 2.393995 -1.473508
0.666870 3.121750 -1.488212
1.017670 2.825830 -1.106213
0.609688 3.399859 -1.392983
0.179613 3.078480 -1.473385
0.281149 3.470439 -1.245388
0.783094 4.012477 -0.583272
1.222943 3.137754 1.449596
0.288569 2.811245 1.787279
0.652409 3.464653 1.568279
1.139130 3.606236 1.279951
0.845716 3.843480 1.141593
0.186178 3.494903 1.498629
1.678189 3.271814 0.199336
1.686191 3.048202 0.772467
1.381632 2.432423 0.535715
1.494738 3.611899 0.575704
-0.504621 3.528114 1.389500
-1.404272 3.387083 1.241020
-1.330375 2.791415 1.228436
-0.735413 2.656990 1.549802
-0.419460 2.485630 1.393404
-0.872166 2.393201 1.178248
-1.134248 2.557070 1.190418
-0.758156 2.943614 0.729303
-0.726967 2.613585 1.070453
-1.106842 2.730012 0.744860
-1.372516 2.585878 0.921447
1.518422 3.522412 0.198360
1.306716 3.778804 0.558051
1.363184 3.834710 0.068054
1.381765 3.787208 -0.403866
0.826315 4.056424 -0.401044
1.240893 3.928146 0.229263
-0.046274 3.485071 -0.621918
-0.337946 3.686767 -0.375588
-0.385938 3.917120 -0.227272
-0.045410 3.475438 -0.399634
0.318028 3.674408 -0.652338
1.114948 3.822975 0.822824
4 0 1 2 3
4 4 5 6 7
4 8 9 10 11
4 12 13 14 4
4 13 15 16 14
4 17 18 19 20
4 20 19 15 13
4 17 20 13 12
4 7 6 9 8
3 18 10 21
3 19 22 15
4 11 17 12 8
4 11 10 18 17
4 8 12 4 7
5 14 16 23 5 4
4 15 22 23 16
4 3 2 24 25
3 26 6 5
4 6 27 28 29
4 30 9 6 29
4 31 32 1 0
3 23 26 5
4 26 23 33 34
6 3 35 36 37 38 0
4 21 10 39 40
5 31 41 42 43 44
3 30 10 9
4 22 19 45 46
3 0 47 48
3 21 19 18
4 29 28 49 30
4 34 33 50 51
4 34 27 6 26
5 52 33 23 22 46
4 49 39 10 30
4 46 45 53 54
9 40 39 55 56 57 58 59 60 61
11 49 28 27 62 63 64 65 66 32 44 43
4 40 45 19 21
6 43 42 67 55 39 49
4 55 67 42 68
3 68 42 41
8 54 53 69 70 71 72 52 46
3 52 72 73
4 74 75 70 69
8 61 60 76 77 78 79 80 40
5 41 81 82 56 68
3 68 56 55
3 82 83 77
5 82 77 58 57 56
4 77 76 60 58
3 60 59 58
5 53 84 85 86 69
5 69 86 85 87 74
6 74 87 85 88 89 90
10 51 50 91 92 93 94 95 96 25 34
4 94 93 92 91
6 52 97 98 99 50 33
4 50 99 98 91
4 91 98 100 94
9 34 101 102 103 104 105 106 62 27
6 62 106 105 104 103 107
4 108 66 109 110
3 110 109 107
4 102 108 110 103
3 103 110 107
3 66 111 109
8 109 111 66 65 64 63 62 107
5 34 24 2 102 101
4 1 32 66 108
4 2 1 108 102
3 44 32 31
3 25 35 3
3 25 24 34
6 52 112 113 100 98 97
6 114 115 116 90 47 38
4 114 117 112 73
3 38 47 0
12 118 79 119 83 82 81 41 31 0 48 120 121
3 121 120 48
8 48 47 90 89 80 118 122 121
3 121 122 118
5 38 37 36 117 114
5 83 119 79 78 77
3 80 79 118
8 80 89 88 85 84 53 45 40
3 73 112 52
8 72 71 70 75 74 90 116 115
4 73 72 115 114
7 100 113 112 117 123 95 94
4 25 96 95 35
5 95 123 117 36 35
