ply
format ascii 1.0
comment Created by Blender 2.90.1 - www.blender.org
element vertex 264
property float x
property float y
property float z
element face 523
property list uchar uint vertex_indices
end_header
0.182026 0.966893 -0.406567
0.183240 0.973343 -0.414961
0.184361 0.966713 -0.413943
0.191821 0.973182 -0.418804
0.198231 0.966883 -0.412913
0.192136 0.966837 -0.417256
0.215546 0.976100 -0.406731
0.200792 0.973555 -0.398103
0.198000 0.967060 -0.400448
0.191924 0.966812 -0.397024
0.184613 0.974230 -0.398911
0.185427 0.966742 -0.400249
0.191841 0.878539 -0.406626
0.198000 0.878539 -0.400436
0.191818 0.878539 -0.397674
0.191450 1.028110 -0.403734
0.188534 1.027420 -0.403422
0.210044 1.024358 -0.404898
0.203164 0.973942 -0.406343
0.206618 0.976357 -0.402878
0.201493 0.974755 -0.399512
0.185651 0.878539 -0.400467
0.182628 0.878539 -0.406650
0.192178 0.973566 -0.393829
0.185682 0.878539 -0.412816
0.225226 0.986782 -0.409826
0.199845 0.974222 -0.414939
0.185807 0.974250 -0.416186
0.187045 0.974791 -0.420674
0.198032 0.878539 -0.412785
0.191863 0.878539 -0.415271
0.180294 0.973547 -0.406464
0.205539 1.029874 -0.417413
0.193445 1.029912 -0.417169
0.207328 1.027421 -0.407569
0.175689 0.978029 -0.408228
0.180272 0.974775 -0.411366
0.185702 1.021930 -0.421918
0.186968 1.021244 -0.424785
0.185330 1.014245 -0.422882
0.201282 0.974361 -0.393203
0.197502 0.974183 -0.392547
0.175419 0.983421 -0.424198
0.174509 0.985025 -0.422034
0.183244 0.987200 -0.440744
0.188993 0.974624 -0.394962
0.183197 0.977344 -0.391783
0.187169 0.976852 -0.392340
0.182327 0.979616 -0.388875
0.199915 0.978650 -0.422364
0.206771 0.977225 -0.414379
0.226434 0.990321 -0.406784
0.226108 0.986281 -0.406757
0.191808 1.002927 -0.449999
0.190039 1.008693 -0.455084
0.192669 1.009367 -0.455904
0.224642 0.990339 -0.376910
0.227089 0.997031 -0.376556
0.226264 0.997189 -0.374243
0.181986 0.978733 -0.429651
0.177221 0.976979 -0.422568
0.186890 1.025337 -0.401578
0.208572 1.026372 -0.404108
0.168843 1.000793 -0.379838
0.166722 0.997283 -0.381360
0.168667 0.992973 -0.378304
0.188012 1.020095 -0.392338
0.187739 1.020762 -0.392804
0.169082 1.001142 -0.380016
0.207019 1.004509 -0.398724
0.209103 1.026536 -0.399671
0.180605 1.003109 -0.451253
0.179520 1.004714 -0.450651
0.180000 1.008043 -0.449920
0.185510 1.030936 -0.417373
0.189732 1.026623 -0.413375
0.187772 1.026585 -0.405495
0.172742 1.018242 -0.406896
0.180471 1.020898 -0.394487
0.182402 1.031635 -0.417146
0.176417 1.024448 -0.411524
0.185308 1.019339 -0.393137
0.170581 1.000841 -0.378580
0.207217 1.004743 -0.397754
0.220402 1.020262 -0.373357
0.207837 1.004684 -0.397694
0.168149 1.000947 -0.380749
0.164014 0.991304 -0.381501
0.172881 0.987024 -0.402067
0.181475 0.981149 -0.386781
0.160166 0.993683 -0.387877
0.163033 0.999045 -0.385895
0.162524 0.999958 -0.388030
0.165550 1.001384 -0.383982
0.163169 1.001529 -0.388356
0.178094 1.004693 -0.447211
0.163030 1.001262 -0.388390
0.161206 0.997680 -0.403429
0.176853 1.006182 -0.443603
0.174409 1.004905 -0.442948
0.176034 1.007261 -0.440995
0.177939 0.976645 -0.417339
0.183224 0.975722 -0.415298
0.179671 0.977244 -0.414658
0.173795 0.980630 -0.419652
0.177221 1.025870 -0.421585
0.184370 1.022030 -0.429158
0.177938 1.008273 -0.443511
0.170183 0.991494 -0.424292
0.173734 0.983569 -0.419805
0.168490 1.009007 -0.407843
0.170185 1.014683 -0.413938
0.184219 0.975603 -0.419647
0.173209 0.984668 -0.420392
0.173591 0.981669 -0.422553
0.185497 1.031023 -0.417196
0.177162 1.001301 -0.445968
0.175487 0.979795 -0.415772
0.183214 0.976493 -0.424489
0.188983 0.975003 -0.426777
0.172516 0.985251 -0.403559
0.172443 0.985371 -0.402537
0.225569 0.990386 -0.409472
0.225032 0.997073 -0.405528
0.228250 1.001987 -0.405041
0.227984 1.002012 -0.403717
0.227844 1.015685 -0.403095
0.224340 1.018972 -0.404155
0.227634 1.015859 -0.402698
0.186277 1.013080 -0.442259
0.188398 0.998277 -0.451794
0.196346 1.024777 -0.433786
0.194909 1.024438 -0.432788
0.193531 1.029545 -0.418550
0.194513 1.029032 -0.421186
0.197304 1.024949 -0.433345
0.195166 1.029617 -0.419546
0.192549 1.030059 -0.415914
0.226279 1.001485 -0.372744
0.230115 1.006755 -0.396376
0.229058 1.011695 -0.397099
0.227394 1.007351 -0.372817
0.227355 1.016667 -0.397688
0.226051 1.003027 -0.371921
0.226969 1.007810 -0.371798
0.197821 1.028655 -0.424078
0.196888 1.029322 -0.421923
0.197418 1.009452 -0.452443
0.201292 0.983107 -0.422790
0.219488 0.986320 -0.416634
0.224769 0.997824 -0.408050
0.231091 1.007687 -0.416170
0.231116 1.009285 -0.407423
0.216395 0.995050 -0.424616
0.202334 1.005024 -0.443770
0.198016 1.013400 -0.448837
0.175230 0.980671 -0.402676
0.188155 0.984117 -0.379588
0.168017 0.989362 -0.377433
0.188298 0.982780 -0.381104
0.190754 0.985691 -0.380677
0.191135 0.984296 -0.382556
0.194235 0.997570 -0.366643
0.212649 1.007599 -0.363734
0.202193 0.980185 -0.388622
0.223985 0.997950 -0.371190
0.220876 0.998670 -0.366578
0.224071 1.018716 -0.374168
0.222282 1.016189 -0.369310
0.219153 1.018085 -0.370672
0.216192 1.017331 -0.369650
0.216905 1.017252 -0.369809
0.205786 1.007964 -0.367781
0.209035 1.007115 -0.365380
0.193767 0.974921 -0.391807
0.203170 0.974246 -0.394985
0.174616 0.981663 -0.406051
0.188343 1.007843 -0.372117
0.200085 1.005442 -0.368014
0.181608 1.014353 -0.378808
0.188752 0.996585 -0.372057
0.183989 0.990470 -0.376955
0.191641 0.980260 -0.386699
0.176478 0.977364 -0.403067
0.182460 0.960027 -0.406638
0.198032 0.960078 -0.412785
0.200906 0.878539 -0.406603
0.191872 0.960043 -0.415555
0.198330 0.959873 -0.400154
0.191647 0.959840 -0.396694
0.185651 0.960078 -0.400467
0.201065 0.960108 -0.406638
0.185665 0.960062 -0.412808
0.224389 1.009125 -0.367766
0.215758 1.003093 -0.364048
0.222762 1.003654 -0.366949
0.219879 0.998377 -0.366246
0.222001 1.001080 -0.366768
0.223682 1.001881 -0.370340
0.225861 1.001447 -0.372288
0.223925 0.998493 -0.371128
0.203829 0.982461 -0.396924
0.223638 1.000866 -0.370708
0.211441 1.001981 -0.364121
0.225400 1.008947 -0.369033
0.223848 1.019137 -0.405025
0.212601 1.023347 -0.405747
0.212161 1.023231 -0.406628
0.208422 1.026098 -0.407409
0.207162 1.027612 -0.407245
0.204401 1.029232 -0.398082
0.212872 1.024530 -0.398877
0.216942 1.023503 -0.398567
0.224661 1.022295 -0.386719
0.223790 1.007990 -0.423612
0.212606 1.010760 -0.437469
0.187050 1.032003 -0.414836
0.196705 1.028072 -0.425163
0.196101 1.028065 -0.425025
0.206439 1.029247 -0.417170
0.209300 1.026569 -0.416920
0.204833 1.023833 -0.434154
0.201035 1.017312 -0.446810
0.208446 1.017731 -0.442146
0.213241 1.013358 -0.435189
0.229357 1.014238 -0.416697
0.208279 1.020999 -0.434759
0.207448 1.023420 -0.428449
0.212793 1.024213 -0.417689
0.208203 1.026480 -0.409130
0.218436 1.021213 -0.416895
0.208306 1.026184 -0.407748
0.199645 1.027232 -0.395420
0.169642 1.012665 -0.401443
0.164286 1.005824 -0.393650
0.164066 1.004899 -0.417551
0.167523 1.005861 -0.429155
0.174210 1.016889 -0.430459
0.166192 0.995727 -0.381546
0.205985 1.008969 -0.367632
0.174327 1.016575 -0.389680
0.163166 1.005407 -0.389901
0.197412 1.021325 -0.397337
0.190380 1.019608 -0.389019
0.199786 1.027341 -0.395303
0.204094 1.007931 -0.368777
0.189715 1.017638 -0.384919
0.171901 1.010283 -0.386497
0.209181 1.026700 -0.398288
0.209192 1.026686 -0.398366
0.209092 1.026768 -0.398079
0.210420 1.025975 -0.398665
0.204950 1.020031 -0.371734
0.207214 1.018218 -0.369102
0.210738 1.025770 -0.398782
0.200958 1.026499 -0.385672
0.200435 1.027699 -0.394347
0.184383 1.002868 -0.371516
0.188389 1.003402 -0.370141
0.178878 1.002328 -0.373532
0.178475 1.008054 -0.378872
0.185989 0.998190 -0.372438
0.228102 1.015096 -0.384668
0.184908 1.009495 -0.375980
3 0 1 2
3 3 4 5
3 6 7 8
3 9 10 11
3 12 13 14
3 15 16 17
3 18 19 20
3 12 21 22
3 8 23 9
3 2 3 5
3 24 12 22
3 25 18 26
3 3 27 28
3 29 12 30
3 4 18 6
3 11 31 0
3 32 33 34
3 35 36 31
3 37 38 39
3 7 40 41
3 42 43 44
3 10 23 45
3 46 47 48
3 49 50 26
3 25 51 52
3 53 54 55
3 56 57 58
3 59 60 42
3 17 61 62
3 63 64 65
3 66 67 68
3 17 69 70
3 71 72 73
3 74 75 39
3 15 76 16
3 77 78 61
3 76 79 80
3 68 67 81
3 82 63 65
3 83 84 85
3 68 86 63
3 87 88 89
3 90 91 92
3 93 94 91
3 95 71 44
3 96 97 92
3 98 99 100
3 101 102 103
3 104 60 101
3 100 105 106
3 107 38 37
3 108 99 109
3 110 77 111
3 60 112 101
3 79 105 80
3 99 43 113
3 60 114 42
3 79 115 74
3 75 76 15
3 95 116 98
3 95 107 72
3 117 101 103
3 103 102 36
3 117 113 104
3 73 107 37
3 118 28 112
3 59 119 118
3 35 103 36
3 112 27 102
3 88 120 121
3 102 27 1
3 122 123 51
3 123 124 125
3 126 127 128
3 59 42 73
3 129 130 59
3 54 131 132
3 133 134 37
3 55 132 135
3 133 33 136
3 33 137 15
3 58 57 138
3 139 140 141
3 128 142 140
3 143 141 144
3 32 136 33
3 32 145 146
3 55 147 53
3 53 148 49
3 122 149 150
3 151 152 124
3 149 153 151
3 49 148 50
3 149 25 50
3 149 148 154
3 154 147 155
3 154 148 147
3 120 156 121
3 89 157 158
3 159 160 157
3 160 161 162
3 161 163 162
3 164 41 40
3 165 166 164
3 144 167 168
3 169 170 171
3 171 170 172
3 173 162 163
3 171 168 169
3 41 174 7
3 47 45 23
3 40 20 175
3 175 20 56
3 109 176 120
3 121 48 89
3 177 178 179
3 180 181 160
3 159 89 182
3 176 117 35
3 45 47 46
3 113 109 99
3 156 46 48
3 44 99 116
3 176 183 156
3 113 114 104
3 21 184 22
3 185 186 29
3 24 187 30
3 188 14 13
3 189 21 14
3 186 188 13
3 187 29 30
3 184 24 22
3 11 184 190
3 4 191 185
3 2 187 192
3 188 9 189
3 9 190 189
3 191 8 188
3 187 4 185
3 0 192 184
3 193 194 195
3 196 166 197
3 166 196 164
3 143 198 199
3 165 56 58
3 200 201 202
3 202 199 198
3 57 52 51
3 163 203 194
3 203 196 194
3 174 41 164
3 57 123 141
3 138 199 58
3 199 138 143
3 166 165 197
3 198 197 202
3 195 204 193
3 193 204 168
3 200 197 165
3 205 206 127
3 207 208 206
3 208 34 209
3 209 34 15
3 167 144 141
3 210 209 15
3 209 211 208
3 211 206 208
3 212 127 206
3 211 213 212
3 105 79 74
3 214 153 215
3 39 75 216
3 125 126 128
3 132 217 218
3 218 217 134
3 135 218 145
3 218 146 145
3 140 125 128
3 219 220 221
3 135 222 55
3 222 223 155
3 214 215 224
3 214 225 151
3 224 226 227
3 227 220 228
3 227 226 221
3 124 152 126
3 219 229 220
3 229 207 228
3 207 230 228
3 126 152 225
3 225 152 151
3 231 229 34
3 66 232 67
3 92 91 96
3 233 110 234
3 235 96 234
3 236 237 100
3 65 87 158
3 238 65 64
3 172 173 239
3 240 234 241
3 241 234 94
3 67 242 81
3 243 244 66
3 245 246 178
3 93 64 86
3 238 91 87
3 92 97 90
3 108 235 236
3 86 68 247
3 93 241 94
3 111 80 105
3 232 248 249
3 78 233 240
3 244 250 248
3 232 62 242
3 240 247 81
3 61 242 62
3 248 250 251
3 252 253 170
3 245 253 252
3 254 69 17
3 249 251 254
3 167 251 252
3 243 255 252
3 243 179 246
3 69 83 85
3 250 256 252
3 70 84 15
3 254 251 83
3 177 257 258
3 259 260 82
3 181 180 261
3 261 258 257
3 134 136 146
3 33 15 34
3 34 229 32
3 229 219 32
3 42 114 43
3 61 16 76
3 76 80 61
3 80 77 61
3 76 115 79
3 90 87 91
3 95 72 71
3 98 116 99
3 106 107 100
3 107 98 100
3 105 100 237
3 237 236 111
3 236 110 111
3 110 233 77
3 111 105 237
3 95 98 107
3 126 205 127
3 129 54 130
3 54 129 131
3 55 54 132
3 133 137 33
3 32 146 136
3 32 219 145
3 44 43 99
3 116 95 44
3 113 43 114
3 205 207 206
3 84 167 213
3 167 262 213
3 262 142 213
3 142 212 213
3 213 211 84
3 211 210 84
3 15 84 210
3 212 142 127
3 74 38 105
3 38 106 105
3 132 131 217
3 135 132 218
3 218 134 146
3 135 145 221
3 145 219 221
3 135 221 222
3 215 223 224
3 223 226 224
3 224 230 214
3 230 225 214
3 228 230 227
3 230 224 227
3 227 221 220
3 228 220 229
3 229 231 207
3 207 205 230
3 240 233 234
3 108 97 235
3 68 81 247
3 247 241 93
3 93 86 247
3 111 77 80
3 78 77 233
3 179 178 246
3 246 255 243
3 134 133 136
3 94 96 91
3 91 238 64
3 64 93 91
3 96 235 97
3 94 234 96
3 234 110 235
3 110 236 235
3 245 255 246
3 169 167 252
3 253 245 170
3 169 252 170
3 252 256 243
3 255 245 252
3 0 31 1
3 3 26 4
3 6 18 7
3 9 23 10
3 12 186 13
3 18 52 19
3 19 56 20
3 20 7 18
3 12 14 21
3 8 7 23
3 2 1 3
3 24 30 12
3 25 52 18
3 3 1 27
3 28 119 3
3 119 130 53
3 3 119 53
3 29 186 12
3 4 26 18
3 11 10 31
3 31 10 183
3 183 35 31
3 216 15 137
3 216 137 37
3 38 74 39
3 39 216 37
3 7 20 40
3 45 46 10
3 46 183 10
3 3 53 49
3 50 25 26
3 3 49 26
3 25 122 51
3 53 130 54
3 56 19 57
3 59 118 60
3 17 16 61
3 63 86 64
3 68 63 82
3 82 66 68
3 74 115 75
3 65 158 157
3 157 82 65
3 83 167 84
3 89 158 87
3 87 90 88
3 88 121 89
3 101 112 102
3 104 114 60
3 107 106 38
3 236 100 108
3 100 99 108
3 109 120 108
3 120 88 97
3 108 120 97
3 88 90 97
3 60 118 112
3 15 216 75
3 75 115 76
3 117 104 101
3 73 72 107
3 118 119 28
3 59 130 119
3 35 117 103
3 112 28 27
3 31 36 1
3 36 102 1
3 122 150 123
3 123 150 124
3 73 37 129
3 73 129 59
3 44 71 73
3 42 44 73
3 134 217 37
3 217 131 37
3 131 129 37
3 37 137 133
3 141 123 139
3 123 125 139
3 128 127 142
3 143 138 141
3 55 155 147
3 53 147 148
3 124 150 151
3 150 149 151
3 149 154 153
3 154 155 215
3 153 154 215
3 153 214 151
3 149 122 25
3 149 50 148
3 120 176 156
3 89 159 157
3 159 161 160
3 161 182 163
3 164 40 175
3 175 165 164
3 169 168 167
3 168 204 144
3 204 143 144
3 170 160 172
3 160 162 172
3 172 239 171
3 168 171 193
3 171 239 163
3 163 239 173
3 173 172 162
3 163 193 171
3 7 174 23
3 174 47 23
3 109 117 176
3 121 156 48
3 66 82 260
3 260 259 263
3 259 257 263
3 243 66 179
3 66 260 179
3 179 260 263
3 177 258 178
3 179 263 177
3 160 170 245
3 178 258 180
3 160 245 178
3 82 157 181
3 157 160 181
3 181 259 82
3 178 180 160
3 89 48 182
3 48 47 182
3 47 174 182
3 182 161 159
3 113 117 109
3 156 183 46
3 176 35 183
3 21 190 184
3 185 191 186
3 24 192 187
3 188 189 14
3 189 190 21
3 186 191 188
3 187 185 29
3 184 192 24
3 11 0 184
3 4 6 191
3 2 5 187
3 188 8 9
3 9 11 190
3 191 6 8
3 187 5 4
3 0 2 192
3 193 163 194
3 197 195 194
3 194 196 197
3 143 204 198
3 58 199 165
3 199 202 200
3 165 199 200
3 165 175 56
3 57 19 52
3 163 182 203
3 203 182 196
3 164 196 182
3 182 174 164
3 141 138 57
3 57 51 123
3 195 197 198
3 197 200 202
3 195 198 204
3 207 231 208
3 208 231 34
3 141 140 262
3 140 142 262
3 262 167 141
3 209 210 211
3 211 212 206
3 125 124 126
3 140 139 125
3 155 55 222
3 222 221 223
3 221 226 223
3 223 215 155
3 225 230 205
3 205 126 225
3 66 244 232
3 65 238 87
3 67 232 242
3 243 256 244
3 232 244 248
3 244 256 250
3 232 249 62
3 81 242 78
3 240 241 247
3 81 78 240
3 61 78 242
3 17 62 254
3 62 249 254
3 249 248 251
3 83 251 167
3 251 250 252
3 69 254 83
3 70 69 85
3 15 17 70
3 70 85 84
3 177 263 257
3 257 259 261
3 259 181 261
3 261 180 258
