ply
format ascii 1.0
comment Created by Blender 2.90.1 - www.blender.org
element vertex 124
property float x
property float y
property float z
element face 244
property list uchar uint vertex_indices
end_header
-0.029064 3.379361 0.509060
-0.121034 4.044044 0.061390
0.052376 4.037272 0.005549
0.000000 1.947180 0.416001
-0.300000 -0.300000 0.300000
0.000000 -0.300000 0.416001
-0.436893 1.947180 0.000000
-0.300000 -0.300000 -0.300000
-0.436893 -0.300000 0.000000
0.000000 -0.300000 0.000000
0.300000 -0.300000 0.300000
0.466692 1.947180 0.000000
0.466692 -0.300000 0.000000
0.000000 1.947180 -0.456488
0.300000 -0.300000 -0.300000
0.000000 -0.300000 -0.456488
0.300000 1.947180 -0.300000
-0.300000 1.947180 0.300000
-0.300000 1.947180 -0.300000
-0.000120 2.310806 -1.781631
1.799190 2.309915 -0.001453
0.292723 1.947180 0.302814
0.300000 1.947180 0.300000
-0.396870 3.868018 0.912908
-0.101931 3.796167 1.008573
0.000402 2.284684 1.764847
-0.942175 1.960595 0.857953
-1.439748 2.253631 0.020244
-1.590390 2.294711 -0.025576
0.011309 4.074726 0.165905
1.001324 2.040716 0.895206
-0.001461 2.347428 1.691911
0.468639 4.036846 0.593042
0.672876 4.010312 0.122703
0.234192 4.036702 0.050942
-0.000943 2.349427 -1.733932
-1.464422 3.452980 -0.665287
-1.603310 3.355289 -0.044601
-0.945313 4.010456 0.212112
0.899614 2.080971 -0.858717
1.731844 2.357038 -0.007111
0.046878 3.978732 -0.107227
-0.061548 3.914359 -0.160338
-1.436977 2.276410 0.022178
0.717355 2.621275 1.487080
-1.513002 2.375436 -0.016613
1.141558 2.421681 -0.771670
-0.336511 2.414542 -1.550825
-0.170736 2.966285 -1.504247
-1.175490 2.289799 0.464545
-1.722409 3.082033 0.353184
-1.529032 2.761042 -0.501064
-1.229927 2.081746 -0.265987
-1.450559 3.037477 -0.703638
-1.442529 2.687004 -0.669066
-1.493072 3.086876 -0.624656
1.156149 2.813869 -1.028771
1.183453 2.673095 -0.615959
1.728078 2.367666 -0.004560
1.455346 3.059669 -0.369922
1.607944 3.353189 0.054822
1.245191 3.413261 -1.128589
1.404874 2.787076 -0.767970
-0.104577 3.292684 -1.319593
0.044063 3.290523 -0.843939
-1.314712 3.673876 -0.903890
-1.262246 2.698816 -0.900943
-0.755138 4.054916 -0.383093
-0.662056 3.525725 -1.300212
-1.172311 2.638057 -0.951949
-0.293179 2.967459 -1.507851
-0.576745 2.899735 -1.483997
0.458214 2.393995 -1.473508
0.666870 3.121750 -1.488212
1.017670 2.825830 -1.106213
0.609688 3.399859 -1.392983
0.281149 3.470439 -1.245388
0.783094 4.012477 -0.583272
0.288569 2.811245 1.787279
0.186178 3.494903 1.498629
0.652409 3.464653 1.568279
1.222943 3.137754 1.449596
1.139130 3.606236 1.279951
1.381632 2.432423 0.535715
1.142976 2.502451 1.129539
1.686191 3.048202 0.772467
-0.419460 2.485630 1.393404
-0.872166 2.393201 1.178248
-0.735413 2.656990 1.549802
-1.134248 2.557070 1.190418
-0.758156 2.943614 0.729303
-0.726967 2.613585 1.070453
-1.106842 2.730012 0.744860
-1.404272 3.387083 1.241020
-1.330375 2.791415 1.228436
-0.934967 2.981022 1.587437
-1.372516 2.585878 0.921447
-0.504621 3.528114 1.389500
-0.154180 3.846050 0.836615
-0.368828 3.382970 0.228240
1.518422 3.522412 0.198360
1.494738 3.611899 0.575704
1.678189 3.271814 0.199336
0.826315 4.056424 -0.401044
1.363184 3.834710 0.068054
-0.046274 3.485071 -0.621918
-0.041822 3.515229 -0.615760
-0.385938 3.917120 -0.227272
-0.045410 3.475438 -0.399634
0.318028 3.674408 -0.652338
1.240893 3.928146 0.229263
-0.337946 3.686767 -0.375588
-0.409921 3.623677 -0.756014
0.179613 3.078480 -1.473385
1.381765 3.787208 -0.403866
1.306716 3.778804 0.558051
1.114948 3.822975 0.822824
0.845716 3.843480 1.141593
0.802257 4.050620 0.259390
1.026590 2.386869 -0.924179
-1.038831 2.407189 1.100542
-1.600571 3.185581 1.054897
1.506096 3.455232 -0.593260
-1.400331 3.728495 -0.573921
3 0 1 2
3 3 4 5
3 6 7 8
3 9 10 5
3 11 10 12
3 13 14 15
3 16 12 14
3 14 9 15
3 17 8 4
3 13 18 19
3 16 20 11
3 7 9 8
3 18 15 7
3 9 4 8
3 21 3 5
3 20 22 11
3 1 23 24
3 25 17 3
3 26 27 17
3 6 27 28
3 29 0 2
3 21 25 3
3 25 30 31
3 32 33 34
3 18 35 19
3 36 37 38
3 28 18 6
3 20 39 40
3 2 41 42
3 19 16 13
3 43 28 27
3 30 44 31
3 31 17 25
3 30 21 20
3 45 18 28
3 39 46 40
3 47 48 35
3 43 49 50
3 35 16 19
3 51 52 45
3 51 53 54
3 53 55 36
3 46 56 57
3 58 59 60
3 61 62 56
3 48 63 64
3 36 65 53
3 53 66 54
3 65 67 68
3 68 69 66
3 68 70 71
3 70 47 71
3 72 73 74
3 73 75 61
3 76 77 75
3 78 79 31
3 80 81 82
3 58 83 30
3 84 85 81
3 85 82 81
3 31 86 26
3 87 88 89
3 90 91 92
3 92 91 89
3 93 92 94
3 94 92 89
3 95 96 91
3 91 49 89
3 23 93 97
3 98 90 0
3 99 90 93
3 38 98 29
3 24 32 1
3 24 23 31
3 100 101 102
3 103 41 34
3 104 100 60
3 34 41 2
3 105 106 107
3 108 107 42
3 41 77 109
3 108 109 105
3 33 110 104
3 111 106 112
3 64 106 105
3 35 113 72
3 60 100 58
3 77 103 114
3 60 114 104
3 115 110 116
3 24 117 32
3 116 118 32
3 0 99 1
3 3 17 4
3 6 18 7
3 9 12 10
3 11 22 10
3 13 16 14
3 16 11 12
3 14 12 9
3 17 6 8
3 7 15 9
3 18 13 15
3 9 5 4
3 5 10 21
3 10 22 21
3 20 21 22
3 1 99 23
3 26 43 27
3 6 17 27
3 29 98 0
3 25 21 30
3 2 1 34
3 1 32 34
3 32 118 33
3 18 52 35
3 38 29 36
3 36 55 37
3 20 16 39
3 43 45 28
3 30 84 44
3 31 26 17
3 40 58 20
3 58 30 20
3 45 52 18
3 39 119 46
3 35 52 47
3 52 54 69
3 54 66 69
3 69 71 47
3 47 70 48
3 52 69 47
3 37 45 50
3 45 43 50
3 43 26 49
3 26 120 49
3 38 37 50
3 95 98 121
3 98 38 121
3 50 121 38
3 35 39 16
3 45 37 51
3 37 55 51
3 51 54 52
3 51 55 53
3 46 119 56
3 56 62 57
3 57 59 58
3 58 40 57
3 40 46 57
3 61 122 62
3 48 70 63
3 63 68 112
3 112 106 64
3 64 35 48
3 63 112 64
3 36 123 65
3 65 66 53
3 66 65 68
3 68 71 69
3 68 63 70
3 56 119 74
3 119 72 74
3 61 56 74
3 74 73 61
3 77 61 75
3 75 73 113
3 113 76 75
3 44 84 81
3 44 81 78
3 79 24 31
3 82 117 80
3 117 79 80
3 31 44 78
3 78 80 79
3 80 78 81
3 58 102 83
3 102 85 83
3 83 84 30
3 84 83 85
3 85 101 82
3 31 97 86
3 97 93 88
3 86 97 88
3 93 94 88
3 87 120 26
3 86 87 26
3 89 120 87
3 87 86 88
3 88 94 89
3 90 95 91
3 93 90 92
3 96 95 121
3 121 50 96
3 50 49 96
3 49 120 89
3 91 96 49
3 97 31 23
3 23 99 93
3 98 95 90
3 99 0 90
3 102 58 100
3 100 115 101
3 101 85 102
3 34 104 103
3 104 114 103
3 103 77 41
3 104 110 100
3 67 65 123
3 123 36 29
3 29 2 42
3 107 108 105
3 29 42 107
3 67 123 107
3 123 29 107
3 111 67 107
3 106 111 107
3 108 42 109
3 42 41 109
3 77 76 109
3 76 64 109
3 64 105 109
3 104 34 33
3 33 118 110
3 68 67 112
3 67 111 112
3 35 64 113
3 64 76 113
3 113 73 72
3 119 39 72
3 39 35 72
3 114 59 122
3 59 57 122
3 57 62 122
3 122 61 114
3 61 77 114
3 60 59 114
3 82 101 116
3 101 115 116
3 115 100 110
3 116 117 82
3 24 79 117
3 32 117 116
3 116 110 118
