ply
format ascii 1.0
comment Created by Blender 2.90.1 - www.blender.org
element vertex 162
property float x
property float y
property float z
element face 320
property list uchar uint vertex_indices
end_header
-0.099425 0.441764 0.713179
-0.271799 0.291556 0.832936
-0.089438 0.320882 0.922907
-0.359619 0.098985 0.868687
-0.106199 0.083865 1.039625
-0.436729 0.354243 -0.244360
-0.454646 0.117611 -0.398190
-0.424138 0.073415 -0.069896
0.070884 -0.261144 0.600218
0.178139 -0.217726 0.679729
0.064810 -0.273139 0.712171
0.404392 0.102783 0.590733
0.314530 0.257972 0.791139
0.362623 0.114159 0.869443
0.190169 0.464154 -0.619371
0.295791 0.446221 -0.358006
0.459070 0.142052 -0.407122
-0.195830 0.478816 -0.599818
0.000057 0.486741 -0.614626
-0.187237 0.451547 -0.626796
-0.070304 -0.260891 0.597514
0.001072 -0.273370 0.714528
-0.077726 -0.270283 0.710525
0.105515 0.089235 1.037963
0.001295 0.306598 0.917611
0.001090 0.053165 1.033383
-0.000468 0.427144 0.737612
0.126704 0.328117 0.917483
0.111265 0.442520 0.725477
0.212752 0.624580 -0.017683
0.003099 0.621284 0.043560
0.188898 0.606189 0.073279
-0.083458 -0.257006 -0.054520
0.000000 -0.242760 0.024960
-0.078949 -0.231425 0.006456
0.455453 0.042659 -0.044131
0.377133 0.387422 -0.073897
0.444630 0.043979 0.009091
0.168470 -0.259795 -0.058148
0.078850 -0.231430 0.006463
0.083250 -0.257047 -0.054655
-0.326514 0.195653 0.059422
-0.338919 0.059768 0.037316
-0.316001 0.036958 0.067596
-0.386255 0.275251 -0.000938
-0.291852 0.530407 0.024963
-0.312151 0.578748 -0.156179
0.001974 0.680854 -0.077553
-0.168016 -0.259894 -0.057947
-0.158211 -0.229894 0.011679
-0.188614 -0.213478 0.672878
-0.193663 -0.218641 0.568826
-0.375121 0.327368 -0.418921
0.000044 -0.267398 -0.073134
0.424018 0.411801 -0.178976
0.319804 0.303882 0.628593
0.015006 0.609406 -0.349508
-0.001554 -0.256227 0.597220
0.068128 -0.199058 0.072184
0.000001 -0.217358 0.064482
0.357434 0.461296 0.082456
0.000936 0.582115 0.105871
-0.068097 -0.199076 0.072149
-0.153331 -0.191241 0.072496
-0.363539 0.021672 0.339276
0.134762 0.542792 0.137705
0.420310 0.032732 0.067000
0.157311 -0.230873 0.010321
-0.350311 0.216751 0.027278
-0.318347 0.481422 0.054638
0.187166 0.620546 -0.124956
0.426095 0.425862 -0.248537
0.070688 -0.279429 -0.109665
0.000045 -0.259807 -0.124183
-0.180157 -0.269512 -0.111834
0.003240 0.679202 -0.125069
-0.291842 0.624051 -0.275227
0.180400 -0.269470 -0.112725
0.406260 0.031810 -0.166180
-0.070864 -0.279460 -0.109629
-0.352049 0.077771 0.012079
0.154882 0.551416 -0.312700
-0.060666 -0.262755 -0.194518
0.061925 -0.262956 -0.194558
-0.192707 -0.259957 -0.176519
-0.000004 -0.242008 -0.182305
-0.311451 -0.137055 -0.041464
-0.387722 -0.061352 -0.080480
-0.297618 -0.148995 -0.108614
0.266658 -0.196714 -0.216233
0.374669 -0.078129 -0.107716
0.301496 -0.146703 -0.102594
-0.305527 -0.113497 0.026199
-0.353242 -0.022925 0.014898
0.340200 -0.095660 -0.065826
0.299757 -0.151318 -0.068341
0.286866 -0.140573 0.010488
0.411180 -0.009296 0.068272
0.287265 -0.126006 0.598595
-0.328193 -0.031681 0.334323
-0.298401 -0.098471 0.060369
-0.279902 -0.123977 0.338550
-0.000647 -0.188907 -0.440790
0.099164 -0.098395 -0.552875
0.086100 -0.188665 -0.418569
0.279742 -0.004938 0.909357
0.073436 -0.179725 0.856237
0.241273 -0.145321 0.742388
-0.000051 -0.073500 1.006399
-0.073111 -0.179655 0.856304
-0.002122 -0.174418 0.853540
-0.349255 -0.075651 -0.295296
-0.087137 -0.187914 -0.419694
-0.267154 -0.194512 -0.216989
-0.326755 -0.007529 0.035704
-0.101217 -0.094655 -0.555494
0.345906 -0.082182 -0.289450
0.272150 -0.145678 0.698193
-0.313726 -0.013006 0.819201
-0.248277 -0.142794 0.741249
0.191314 -0.219908 0.571397
0.194767 -0.259372 -0.175869
-0.182060 -0.199017 0.325777
0.152010 -0.192089 0.072011
0.405052 -0.019693 0.016553
-0.329355 -0.009302 0.061309
0.000891 -0.052087 -0.592967
0.083741 -0.066354 1.023166
-0.085726 -0.063926 1.024907
0.390651 0.009734 0.575550
0.484507 0.022311 0.349679
-0.366027 -0.015750 0.461841
-0.184269 -0.217157 0.482728
0.179475 -0.199909 0.326604
0.281532 -0.146164 0.639330
-0.298187 -0.121830 0.476121
-0.374054 0.070348 0.476347
-0.379307 0.280790 0.334061
-0.000292 -0.236872 0.331894
0.085610 0.446479 0.340691
0.427232 0.276364 0.305697
-0.002311 0.342393 0.340358
-0.091565 -0.211887 0.333561
0.504325 0.057619 0.350412
0.092301 -0.211861 0.333027
-0.229738 0.337088 0.339749
-0.404095 0.106597 0.593354
-0.329939 0.312074 0.539427
-0.394522 0.015968 0.570786
-0.289533 -0.138425 0.608517
0.434374 0.172913 0.506300
0.362018 -0.025319 0.472762
0.186924 -0.215502 0.482362
0.289511 -0.134495 0.669559
0.078049 -0.262389 0.506809
-0.002174 -0.268734 0.507216
0.328602 0.313904 0.548690
-0.093087 0.393055 0.535787
0.003346 0.418536 0.536332
0.089167 0.395502 0.537263
-0.077655 -0.262572 0.507653
-0.320102 0.306163 0.626158
3 0 1 2
3 2 3 4
3 5 6 7
3 8 9 10
3 11 12 13
3 14 15 16
3 17 18 19
3 20 21 22
3 23 24 25
3 26 27 28
3 29 30 31
3 32 33 34
3 35 36 37
3 38 39 40
3 41 42 43
3 44 45 46
3 47 45 30
3 48 34 49
3 20 50 51
3 52 19 6
3 24 4 25
3 26 2 24
3 40 33 53
3 29 36 54
3 28 12 55
3 13 27 23
3 56 14 18
3 57 10 21
3 33 58 59
3 31 60 36
3 45 61 30
3 49 62 63
3 64 41 43
3 30 65 31
3 33 62 34
3 37 60 66
3 67 58 39
3 68 69 45
3 70 54 71
3 72 53 73
3 74 32 48
3 75 46 47
3 5 46 76
3 77 40 72
3 78 54 35
3 79 53 32
3 70 47 29
3 68 80 42
3 56 70 81
3 82 73 79
3 16 71 78
3 83 77 72
3 52 76 17
3 56 76 75
3 84 79 74
3 83 73 85
3 15 70 71
3 44 7 80
3 86 87 88
3 89 90 91
3 92 93 86
3 91 94 95
3 96 97 98
3 99 100 101
3 102 103 104
3 105 106 107
3 108 109 110
3 111 112 113
3 100 114 92
3 94 96 95
3 106 108 110
3 115 102 112
3 104 116 89
3 117 105 107
3 88 111 113
3 109 118 119
3 109 50 22
3 88 84 74
3 117 9 120
3 104 121 83
3 112 85 82
3 106 21 10
3 38 96 67
3 63 92 49
3 84 112 82
3 21 109 22
3 9 106 10
3 85 104 83
3 101 63 122
3 96 123 67
3 77 95 38
3 49 86 48
3 121 91 77
3 86 74 48
3 80 87 93
3 116 78 90
3 42 93 114
3 90 35 94
3 124 66 97
3 99 43 125
3 126 14 103
3 105 23 127
3 25 128 108
3 6 115 111
3 43 114 125
3 35 124 94
3 127 25 108
3 19 126 115
3 103 16 116
3 129 13 105
3 7 111 87
3 4 118 128
3 66 130 97
3 131 64 99
3 132 101 122
3 98 133 123
3 98 130 134
3 135 99 101
3 136 137 64
3 58 138 59
3 60 139 140
3 69 141 61
3 63 142 122
3 65 141 139
3 62 138 142
3 66 140 143
3 123 144 58
3 41 145 69
3 146 147 136
3 148 135 149
3 51 135 132
3 148 136 131
3 130 150 151
3 134 152 133
3 134 151 153
3 138 154 155
3 139 156 140
3 141 157 158
3 142 132 122
3 139 158 159
3 138 160 142
3 140 150 143
3 144 152 154
3 145 147 157
3 118 146 148
3 50 149 51
3 118 149 119
3 3 161 146
3 151 11 129
3 153 120 152
3 153 129 117
3 155 8 57
3 159 55 156
3 158 0 26
3 160 51 132
3 158 28 159
3 155 20 160
3 156 11 150
3 154 120 8
3 157 161 0
3 0 161 1
3 2 1 3
3 5 52 6
3 8 120 9
3 11 55 12
3 14 81 15
3 17 56 18
3 20 57 21
3 23 27 24
3 26 24 27
3 29 47 30
3 32 53 33
3 35 54 36
3 38 67 39
3 41 68 42
3 44 68 45
3 47 46 45
3 48 32 34
3 20 22 50
3 52 17 19
3 24 2 4
3 26 0 2
3 40 39 33
3 29 31 36
3 28 27 12
3 13 12 27
3 56 81 14
3 57 8 10
3 33 39 58
3 31 65 60
3 45 69 61
3 49 34 62
3 64 137 41
3 30 61 65
3 33 59 62
3 37 36 60
3 67 123 58
3 68 41 69
3 70 29 54
3 72 40 53
3 74 79 32
3 75 76 46
3 5 44 46
3 77 38 40
3 78 71 54
3 79 73 53
3 70 75 47
3 68 44 80
3 56 75 70
3 82 85 73
3 16 15 71
3 83 121 77
3 52 5 76
3 56 17 76
3 84 82 79
3 83 72 73
3 15 81 70
3 44 5 7
3 86 93 87
3 89 116 90
3 92 114 93
3 91 90 94
3 96 124 97
3 99 125 100
3 102 126 103
3 105 127 106
3 108 128 109
3 111 115 112
3 100 125 114
3 94 124 96
3 106 127 108
3 115 126 102
3 104 103 116
3 117 129 105
3 88 87 111
3 109 128 118
3 109 119 50
3 88 113 84
3 117 107 9
3 104 89 121
3 112 102 85
3 106 110 21
3 38 95 96
3 63 100 92
3 84 113 112
3 21 110 109
3 9 107 106
3 85 102 104
3 101 100 63
3 96 98 123
3 77 91 95
3 49 92 86
3 121 89 91
3 86 88 74
3 80 7 87
3 116 16 78
3 42 80 93
3 90 78 35
3 124 37 66
3 99 64 43
3 126 18 14
3 105 13 23
3 25 4 128
3 6 19 115
3 43 42 114
3 35 37 124
3 127 23 25
3 19 18 126
3 103 14 16
3 129 11 13
3 7 6 111
3 4 3 118
3 66 143 130
3 131 136 64
3 132 135 101
3 98 134 133
3 98 97 130
3 135 131 99
3 136 147 137
3 58 144 138
3 60 65 139
3 69 145 141
3 63 62 142
3 65 61 141
3 62 59 138
3 66 60 140
3 123 133 144
3 41 137 145
3 146 161 147
3 148 131 135
3 51 149 135
3 148 146 136
3 130 143 150
3 134 153 152
3 134 130 151
3 138 144 154
3 139 159 156
3 141 145 157
3 142 160 132
3 139 141 158
3 138 155 160
3 140 156 150
3 144 133 152
3 145 137 147
3 118 3 146
3 50 119 149
3 118 148 149
3 3 1 161
3 151 150 11
3 153 117 120
3 153 151 129
3 155 154 8
3 159 28 55
3 158 157 0
3 160 20 51
3 158 26 28
3 155 57 20
3 156 55 11
3 154 152 120
3 157 147 161
