ply
format ascii 1.0
comment Created by Blender 2.90.1 - www.blender.org
element vertex 262
property float x
property float y
property float z
element face 236
property list uchar uint vertex_indices
end_header
-2.245503 9.759592 -29.580427
-2.435958 10.363735 -29.566854
-2.106113 10.345190 -30.513134
-1.983537 9.743235 -30.401619
-1.126294 9.754560 -30.778858
-1.159765 10.330562 -30.950243
-0.280160 10.425000 -30.531628
-0.459053 9.758706 -30.304789
1.440659 10.595530 -29.640900
0.078829 10.399552 -29.582218
-0.187795 10.364472 -28.665297
-0.493160 9.774794 -28.921791
-1.163745 9.752259 -28.534401
-1.138068 10.365438 -28.180273
-1.966377 10.425694 -28.734417
-1.875886 9.745922 -28.883953
-1.166109 1.737971 -29.599377
-0.169338 1.737971 -29.608255
-0.493192 1.737971 -28.920486
-1.174876 1.737971 -28.606356
-1.211136 15.317481 -29.278084
-1.532040 15.254846 -29.239779
0.834275 14.976797 -29.430649
2.602035 11.519798 -29.657095
0.456147 10.618836 -29.202248
2.419946 11.888224 -26.344511
-0.109779 10.473405 -28.822392
-2.179174 1.737971 -29.590355
-1.851120 1.737971 -28.908390
-1.839026 1.737971 -30.278269
-1.157643 1.737971 -30.558348
2.507224 11.565348 -29.996437
-1.822994 10.427553 -30.652210
-1.683710 10.476612 -31.151594
-1.466336 10.495881 -31.831036
-1.513187 12.608901 -34.605293
-1.139467 13.031141 -34.410534
-0.481098 1.737971 -30.290363
0.537501 15.254886 -29.723484
0.634792 15.169485 -29.897789
0.446509 15.420671 -30.787439
0.347672 15.477599 -30.813236
-0.982413 15.481101 -30.770903
-2.857976 10.710266 -29.185225
-2.941077 10.770658 -29.756718
-2.434933 10.475197 -30.110607
-1.081825 15.494361 -30.630508
-1.830451 14.756366 -31.287878
-1.689310 14.694110 -31.607466
-1.854753 15.574055 -30.783552
-1.870690 14.058688 -31.394390
-1.687186 15.670871 -30.504032
-0.137329 10.437601 -28.122278
-0.553504 10.421491 -28.044813
-2.959658 11.260152 -31.527851
-3.161780 11.101148 -31.343010
-3.061268 11.405833 -31.286663
-2.087657 11.603306 -33.373066
-2.127082 10.708458 -27.942020
-1.487508 10.461501 -28.302000
-1.689899 10.663751 -28.008810
-2.224721 10.914719 -27.618332
-0.267288 10.827011 -31.355276
0.480990 10.697659 -30.478230
2.544662 11.892491 -29.957619
2.637931 11.886635 -29.660551
-1.330345 13.554578 -34.972366
-1.040580 13.615824 -35.066624
2.688747 12.495765 -26.308271
2.596476 12.510182 -26.050646
-2.233659 10.834568 -32.140991
-2.102310 10.631210 -31.569998
-2.762680 10.675341 -31.349346
-1.714105 15.065639 -29.033117
0.671849 15.159679 -29.341112
-3.713757 12.837347 -26.598913
-3.789424 12.851371 -26.699070
-3.945940 12.518705 -26.765015
-3.734275 12.127343 -26.428486
-3.523512 12.841680 -26.461494
-1.597196 14.589758 -28.009674
-1.626867 14.650304 -28.060982
-3.687432 12.869076 -26.618876
0.497319 13.174737 -28.742023
0.727202 15.174597 -28.849623
-2.370507 13.047651 -34.535511
-2.490237 13.193375 -34.467346
-2.437948 13.495607 -34.386848
-1.856362 15.581880 -30.763836
-1.393349 15.182432 -30.345324
-1.614333 15.179017 -29.468737
-2.858823 14.984955 -30.123178
-3.266161 14.421505 -29.605251
-2.424851 14.662708 -28.238533
-2.196732 15.637506 -30.754345
-1.893929 14.521131 -28.094845
-3.806316 11.799578 -26.331022
-1.590331 11.323378 -26.595554
0.518390 13.195944 -28.634600
2.355259 14.464605 -26.039597
1.951202 14.604899 -25.945004
0.586556 13.190607 -28.628796
-4.243678 11.975869 -26.777220
-4.662367 12.191832 -27.479717
-3.254223 11.587237 -29.069717
-3.301999 11.437183 -29.121349
-2.319867 11.053883 -27.384998
-4.348442 12.678617 -27.263447
-4.402903 12.761532 -27.499617
-4.347023 12.879937 -27.540155
-4.004119 12.377411 -26.785030
-4.073011 12.891010 -27.054430
-4.331822 12.904192 -27.536535
-2.649414 13.191463 -34.083897
-4.212696 13.210101 -30.776211
-4.537068 12.554769 -29.206068
-2.788389 13.326603 -33.682114
-2.752802 12.883509 -33.944901
-3.057609 13.210678 -33.606445
-2.880317 13.424567 -33.391777
-2.687341 10.644993 -30.770172
-1.995120 10.550353 -31.034060
-2.107641 10.561161 -30.550411
-2.498726 10.699389 -30.475021
-3.141381 11.006779 -31.021507
-2.669098 13.516446 -33.673344
-2.763292 15.114095 -31.240276
-1.971944 14.765440 -32.089352
-3.148029 11.273639 -31.038378
-3.293288 11.426285 -29.234743
-3.535378 11.993094 -31.531704
-3.824477 13.297472 -32.067772
-3.088259 14.298675 -32.220772
-3.733061 13.583076 -29.704954
-3.610822 13.915192 -28.996422
-3.542378 14.098467 -30.383083
-3.205337 11.373410 -31.102850
-2.958074 10.930957 -30.593294
2.455758 12.567844 -29.798824
2.482856 12.499593 -29.519415
2.836407 12.945782 -29.469543
2.806214 12.948055 -29.322319
2.767037 14.205145 -29.208776
2.790349 14.189356 -29.253067
2.352294 14.502837 -29.462145
2.405814 14.487824 -29.366261
-1.753029 13.952837 -33.544922
-0.651750 15.014846 -32.617748
-0.810452 14.984040 -32.505318
-0.862113 15.401151 -31.217772
-0.618349 15.314014 -31.661785
-0.546732 15.030439 -32.570126
-0.600429 15.427486 -31.302551
2.597039 12.900131 -25.884420
2.719694 13.432755 -25.893909
3.035402 13.378607 -28.510685
2.919651 13.827115 -28.589569
2.732816 14.278539 -28.652756
2.672228 13.474458 -25.780418
2.571372 13.040162 -25.792820
-0.496391 15.366949 -31.542812
-0.457636 13.981921 -34.289379
-0.520850 13.623537 -34.688686
-0.115570 11.231693 -31.404306
1.881035 11.523363 -30.744415
3.156590 13.463301 -30.707512
3.153248 13.608311 -29.737360
0.013643 13.221459 -33.732780
1.138799 13.742217 -33.046822
1.546454 12.315915 -31.625893
2.358938 13.490797 -31.523838
-3.060673 11.100595 -29.513855
-2.995475 11.010468 -29.140255
-1.573584 11.201977 -26.763842
-1.260640 11.339632 -26.928534
-1.303803 11.466252 -26.719616
-0.930858 12.544721 -25.167274
-1.202109 10.973143 -27.388714
1.091962 13.455226 -24.867838
-0.040407 10.966407 -27.615280
0.071482 10.427204 -28.322357
2.343707 12.579254 -25.709204
1.998622 12.644600 -25.193707
2.155090 14.235106 -25.498507
2.497803 13.577684 -25.471725
1.812010 14.407286 -25.645597
1.485741 14.338802 -25.528465
1.564212 14.331689 -25.547056
0.340073 13.488377 -25.308105
0.361957 13.579637 -25.291832
0.695739 13.411308 -25.045778
2.385733 13.593847 -25.329857
-0.964722 10.488475 -27.957987
-2.655325 13.496569 -26.503885
-2.614716 12.976721 -25.912086
-2.010774 13.025779 -25.695330
-1.949976 13.627411 -26.191162
-1.574872 13.477395 -25.767084
-1.571293 13.074249 -25.547911
-0.286661 13.259477 -25.326685
-2.310852 14.068493 -26.500765
-1.339120 14.545594 -27.644516
0.154726 13.485369 -25.416422
-1.530001 12.455309 -25.760881
-2.050261 11.900179 -26.298180
-1.851120 9.140859 -28.908390
-2.197658 9.136246 -29.588909
-0.481098 9.140859 -30.290363
-0.151776 9.143564 -29.612289
-1.840971 9.139376 -30.277346
-1.156498 9.137694 -30.589840
-0.457070 9.122271 -28.889652
-1.194455 9.119220 -28.497414
1.434090 13.046222 -24.906527
2.206273 13.097075 -25.237186
1.888765 12.617984 -25.155596
2.122424 12.863375 -25.216208
2.309757 12.936119 -25.614452
2.550831 12.896708 -25.833334
2.305237 12.844013 -25.655258
0.145330 11.172997 -28.538311
2.337080 12.628511 -25.702173
0.959362 12.945198 -24.909184
1.068361 14.874491 -29.625237
1.116052 14.885011 -29.528067
0.645175 15.142582 -29.744583
0.657756 15.134773 -29.707157
0.519077 15.272199 -29.687389
2.805861 14.135890 -27.209467
1.588392 14.899167 -28.737106
2.428913 14.789553 -27.432583
1.141060 14.992412 -28.766291
0.209009 15.419312 -28.667473
-0.684813 15.313340 -31.645714
0.760930 15.177557 -30.763226
0.281749 14.929149 -32.669277
-0.126994 14.337061 -34.068390
0.661072 14.671818 -32.740772
0.684662 14.375129 -33.560356
1.207039 13.978084 -32.794716
1.765529 14.691287 -30.771999
2.966285 14.058008 -30.763872
0.565306 14.891681 -32.039818
1.145519 14.963658 -30.853018
-0.300437 15.247643 -28.353405
-0.315803 15.237763 -28.366152
-4.205259 13.294080 -28.125284
-3.103852 14.270218 -27.697517
-4.331006 13.256239 -27.707993
-0.559976 14.701398 -28.576000
-0.229749 15.280099 -28.248135
-0.178281 15.171149 -27.286510
-1.415109 14.366712 -27.188789
-3.372901 13.698919 -27.341442
0.734778 15.189431 -28.696369
0.736039 15.188158 -28.705017
0.724887 15.195565 -28.673090
0.871295 15.123662 -28.739786
0.251013 14.584002 -25.745504
0.498071 14.419350 -25.456436
0.906313 15.104985 -28.753157
-1.833544 12.601024 -25.799629
4 0 1 2 3
4 4 5 6 7
4 8 9 10 11
4 12 13 14 15
4 16 17 18 19
3 20 21 22
6 9 23 24 25 26 10
4 27 16 19 28
4 11 10 13 12
4 3 2 5 4
4 29 30 16 27
4 6 31 23 9
7 5 2 32 33 34 35 36
4 30 37 17 16
4 7 6 9 8
4 15 14 1 0
6 20 38 39 40 41 42
5 14 43 44 45 1
7 20 46 47 48 49 50 51
4 10 26 52 53
4 54 55 56 57
5 58 43 14 13 59
3 58 60 61
6 36 62 63 31 6 5
4 23 31 64 65
4 36 35 66 67
4 25 24 68 69
4 54 70 71 72
4 22 21 73 74
4 75 76 77 78
5 75 79 80 81 82
3 22 83 84
3 85 86 87
4 49 88 89 50
3 20 90 21
6 21 90 91 92 93 73
4 90 88 94 91
3 82 81 95
5 96 97 79 75 78
4 98 99 100 101
3 82 76 75
6 96 102 103 104 105 106
4 103 102 107 108
6 109 107 110 77 111 112
4 57 113 86 85
4 109 114 115 108
4 116 117 118 119
4 120 121 122 123
4 120 124 55 72
5 125 116 119 126 127
4 47 125 127 48
9 119 118 128 129 104 103 115 130 131
8 126 119 132 131 133 134 92 135
4 72 71 121 120
3 94 126 91
3 118 56 136
3 72 55 54
3 94 88 49
5 51 89 88 90 20
3 113 117 116
4 86 113 116 125
4 123 137 124 120
3 123 122 45
3 137 136 124
4 87 86 125 47
4 121 71 34 33
4 71 70 35 34
4 45 44 137 123
4 122 121 33 32
3 104 129 105
5 45 122 32 2 1
4 65 64 138 139
4 139 138 140 141
4 142 143 144 145
7 47 146 70 54 57 85 87
4 70 146 66 35
4 66 146 147 148
6 149 150 147 146 47 46
4 67 66 148 151
4 152 149 46 42
3 42 46 20
3 69 68 153
5 154 139 141 155 156
4 142 145 157 156
4 158 159 153 154
3 42 41 152
4 152 41 40 160
4 67 161 162 36
4 36 162 163 62
3 64 164 138
5 138 164 165 166 140
7 164 167 161 168 169 170 165
3 62 163 63
4 63 164 64 31
4 164 63 163 167
3 167 162 161
3 167 163 162
4 105 129 171 172
4 106 173 97 96
4 97 173 174 175
3 175 174 176
4 176 174 177 178
3 179 53 52
5 52 180 181 182 179
6 183 184 159 158 99 185
3 185 186 187
6 187 186 175 176 188 189
8 187 189 190 188 176 178 191 183
3 187 183 185
3 53 192 10
5 192 60 59 13 10
3 52 26 180
3 180 26 25
4 129 128 137 171
4 106 105 172 61
11 79 193 194 195 196 197 198 199 200 201 80
10 186 202 199 198 203 204 194 79 97 175
7 61 60 192 177 174 173 106
3 171 137 44
3 59 60 58
4 136 137 128 118
4 61 172 43 58
5 57 56 118 117 113
4 172 171 44 43
4 136 56 55 124
4 28 205 206 27
4 37 207 208 17
4 29 209 210 30
4 18 211 212 19
4 19 212 205 28
4 17 208 211 18
4 30 210 207 37
4 27 206 209 29
4 205 15 0 206
4 207 7 8 208
4 209 3 4 210
4 211 11 12 212
4 212 12 15 205
4 208 8 11 211
4 210 4 7 207
4 206 0 3 209
4 191 178 213 214
5 214 213 215 182 216
3 182 215 179
4 159 184 217 218
8 218 219 220 221 181 180 25 69
3 221 220 219
3 219 218 217
4 68 24 23 65
4 178 177 222 213
4 213 222 177 215
5 215 177 192 53 179
5 153 68 65 139 154
3 153 218 69
3 218 153 159
3 182 181 216
5 216 221 219 217 214
4 214 217 184 191
3 191 184 183
3 221 216 181
4 145 144 223 224
4 224 223 225 226
4 226 225 38 227
3 227 38 20
6 156 157 228 99 158 154
10 99 228 157 229 230 231 232 227 20 100
4 227 232 231 226
4 226 231 229 224
4 224 229 157 145
3 231 230 229
5 48 127 126 94 49
3 170 169 168
3 50 89 51
4 141 140 143 142
4 148 147 150 233
3 233 150 149
4 151 148 233 160
4 160 233 149 152
4 156 155 141 142
5 160 40 234 235 151
4 151 235 236 67
7 67 236 235 237 238 168 161
7 168 238 237 239 240 241 170
3 170 241 165
5 240 239 237 242 243
4 243 242 235 234
3 242 237 235
3 140 166 143
3 40 39 234
5 234 39 225 223 243
4 243 223 144 240
5 240 144 143 166 241
3 241 166 165
3 225 39 38
4 81 80 244 245
3 108 107 109
3 134 133 246
6 246 133 131 114 109 112
3 131 132 119
4 78 110 102 96
3 110 78 77
3 188 190 189
4 247 134 246 248
3 248 246 112
4 95 81 245 249
4 80 201 250 244
4 202 251 252 199
3 111 77 76
3 110 107 102
3 108 115 103
4 131 130 115 114
6 95 253 248 111 76 82
3 111 248 112
4 135 92 91 126
4 245 244 254 255
4 93 92 134 247
4 244 250 256 254
4 249 245 255 74
6 249 93 247 248 253 95
4 74 73 93 249
3 254 256 257
6 99 258 259 202 186 185
3 202 259 258
5 74 255 260 83 22
4 255 254 257 260
5 257 256 258 99 98
5 250 201 251 202 258
5 201 200 199 252 251
4 83 260 98 101
3 256 250 258
6 84 83 101 100 20 22
3 260 257 98
4 198 197 196 195
3 194 193 79
5 194 204 203 261 195
4 195 261 203 198
