ply
format ascii 1.0
comment Created by Blender 2.90.1 - www.blender.org
element vertex 503
property float x
property float y
property float z
property float nx
property float ny
property float nz
element face 172
property list uchar uint vertex_indices
end_header
-0.344503 -0.106899 -2.313329 -0.011310 -0.533934 -0.845450
0.254658 0.065420 -2.430170 -0.011310 -0.533934 -0.845450
0.506020 -0.293147 -2.207084 -0.011310 -0.533934 -0.845450
1.415955 0.064912 -1.957500 0.432419 -0.749451 -0.501335
1.489208 -0.318759 -1.320762 0.432419 -0.749451 -0.501335
0.506020 -0.293147 -2.207084 0.432419 -0.749451 -0.501335
1.685851 0.084184 -1.268915 0.734904 -0.279119 -0.618068
2.014675 -0.126122 -0.782958 0.734904 -0.279119 -0.618068
1.489208 -0.318759 -1.320762 0.734904 -0.279119 -0.618068
0.957233 -1.089151 -0.905606 0.146612 -0.480540 -0.864631
0.454708 -1.256676 -0.897711 0.146612 -0.480540 -0.864631
0.810208 -0.709404 -1.141590 0.146612 -0.480540 -0.864631
0.454708 -1.256676 -0.897711 0.693344 -0.471028 -0.545351
0.739686 -1.249709 -0.541415 0.693344 -0.471028 -0.545351
0.231851 -1.904112 -0.621845 0.693344 -0.471028 -0.545351
0.810208 -0.709404 -1.141590 0.250114 -0.538384 -0.804727
0.052641 -1.633897 -0.758536 0.250114 -0.538384 -0.804727
-0.020753 -0.743329 -1.377161 0.250114 -0.538384 -0.804727
1.364762 -0.324582 0.647285 0.703998 -0.320406 0.633820
2.074500 0.090083 0.068582 0.703998 -0.320406 0.633820
1.608835 0.037777 0.559365 0.703998 -0.320406 0.633820
1.364762 -0.324582 0.647285 0.168668 -0.983853 -0.059875
2.014675 -0.126122 -0.782958 0.168668 -0.983853 -0.059875
1.955554 -0.191974 0.132568 0.168668 -0.983853 -0.059875
2.014675 -0.126122 -0.782958 0.923533 -0.382169 0.032149
2.074500 0.090083 0.068582 0.923533 -0.382169 0.032149
1.955554 -0.191974 0.132568 0.923533 -0.382169 0.032149
1.364762 -0.324582 0.647285 0.782750 -0.569768 0.250335
1.393132 0.037777 1.383312 0.782750 -0.569768 0.250335
1.210661 -0.322174 1.134609 0.782750 -0.569768 0.250335
1.393132 0.037777 1.383312 0.384202 -0.648684 0.656962
0.514977 -0.286422 1.576757 0.384202 -0.648684 0.656962
1.210661 -0.322174 1.134609 0.384202 -0.648684 0.656962
0.507135 -1.581211 0.348922 0.899189 -0.417795 0.130026
0.342563 -2.052501 -0.027325 0.899189 -0.417795 0.130026
0.620568 -1.491335 -0.146730 0.899189 -0.417795 0.130026
0.745909 -0.723539 0.485115 -0.053516 -0.142055 0.988411
0.089439 -1.345612 0.360167 -0.053516 -0.142055 0.988411
0.507135 -1.581211 0.348922 -0.053516 -0.142055 0.988411
0.745909 -0.723539 0.485115 0.814255 -0.442316 0.375960
0.620568 -1.491335 -0.146730 0.814255 -0.442316 0.375960
1.089500 -0.770651 -0.314462 0.814255 -0.442316 0.375960
-0.123718 -0.298339 1.611730 -0.310691 -0.613103 0.726344
-0.930959 0.037777 1.550149 -0.310691 -0.613103 0.726344
-0.866234 -0.291222 1.300128 -0.310691 -0.613103 0.726344
0.514977 -0.286422 1.576757 0.057026 -0.467461 0.882173
-0.414258 0.037777 1.808618 0.057026 -0.467461 0.882173
-0.123718 -0.298339 1.611730 0.057026 -0.467461 0.882173
-0.930959 0.037777 1.550149 -0.545079 -0.572608 0.612379
-1.444312 -0.282136 0.794076 -0.545079 -0.572608 0.612379
-0.866234 -0.291222 1.300128 -0.545079 -0.572608 0.612379
-1.591571 0.097928 0.827036 -0.822073 -0.356985 0.443574
-1.839477 -0.177971 0.145553 -0.822073 -0.356985 0.443574
-1.444312 -0.282136 0.794076 -0.822073 -0.356985 0.443574
-0.936850 -0.751093 -0.176985 -0.746557 -0.495575 0.443912
-0.611777 -1.317411 -0.262516 -0.746557 -0.495575 0.443912
-0.326162 -1.310280 0.225784 -0.746557 -0.495575 0.443912
-0.326162 -1.310280 0.225784 -0.314567 -0.360829 0.877980
0.089439 -1.345612 0.360167 -0.314567 -0.360829 0.877980
0.289486 -0.743127 0.679448 -0.314567 -0.360829 0.877980
-0.326162 -1.310280 0.225784 -0.308883 -0.016409 0.950958
0.020776 -1.770522 0.330532 -0.308883 -0.016409 0.950958
0.089439 -1.345612 0.360167 -0.308883 -0.016409 0.950958
-1.675519 -0.336500 -0.606829 -0.437848 -0.846877 -0.301808
-1.607249 0.010755 -1.680275 -0.437848 -0.846877 -0.301808
-0.625318 -0.725192 -1.039731 -0.437848 -0.846877 -0.301808
-1.607249 0.010755 -1.680275 -0.071156 0.995311 -0.065514
-2.011082 0.043485 -0.744422 -0.071156 0.995311 -0.065514
-1.247727 0.059337 -1.332687 -0.071156 0.995311 -0.065514
-1.839477 -0.177971 0.145553 -0.745403 -0.666250 -0.022057
-2.011082 0.043485 -0.744422 -0.745403 -0.666250 -0.022057
-1.675519 -0.336500 -0.606829 -0.745403 -0.666250 -0.022057
-1.607249 0.010755 -1.680275 -0.491811 -0.843645 -0.215370
-0.934732 -0.314137 -1.943344 -0.491811 -0.843645 -0.215370
-0.625318 -0.725192 -1.039731 -0.491811 -0.843645 -0.215370
-0.934732 -0.314137 -1.943344 -0.290661 -0.558811 -0.776690
-0.344503 -0.106899 -2.313329 -0.290661 -0.558811 -0.776690
-0.184171 -0.491687 -2.096484 -0.290661 -0.558811 -0.776690
-1.607249 0.010755 -1.680275 -0.468506 -0.295705 -0.832503
-0.707720 0.065178 -2.205832 -0.468506 -0.295705 -0.832503
-0.934732 -0.314137 -1.943344 -0.468506 -0.295705 -0.832503
-0.707720 0.065178 -2.205832 -0.411171 -0.339377 -0.846027
-0.344503 -0.106899 -2.313329 -0.411171 -0.339377 -0.846027
-0.934732 -0.314137 -1.943344 -0.411171 -0.339377 -0.846027
-0.625318 -0.725192 -1.039731 -0.315603 -0.487398 -0.814149
0.052641 -1.633897 -0.758536 -0.315603 -0.487398 -0.814149
-0.350659 -1.373304 -0.758204 -0.315603 -0.487398 -0.814149
-0.350659 -1.373304 -0.758204 -0.316011 -0.488030 -0.813611
0.052641 -1.633897 -0.758536 -0.316011 -0.488030 -0.813611
-0.299529 -2.155551 -0.308846 -0.316011 -0.488030 -0.813611
-0.625318 -0.725192 -1.039731 -0.842372 -0.435616 -0.317252
-0.611777 -1.317411 -0.262516 -0.842372 -0.435616 -0.317252
-0.936850 -0.751093 -0.176985 -0.842372 -0.435616 -0.317252
-0.299529 -2.155551 -0.308846 -0.858317 -0.296621 -0.418698
-0.611777 -1.317411 -0.262516 -0.858317 -0.296621 -0.418698
-0.350659 -1.373304 -0.758204 -0.858317 -0.296621 -0.418698
-0.299529 -2.155551 -0.308846 -0.076337 -0.710053 -0.699999
0.231851 -1.904112 -0.621845 -0.076337 -0.710053 -0.699999
-0.086080 -2.478361 -0.004677 -0.076337 -0.710053 -0.699999
0.231851 -1.904112 -0.621845 0.799111 -0.586126 -0.133708
0.091215 -2.267556 0.130842 0.799111 -0.586126 -0.133708
-0.086080 -2.478361 -0.004677 0.799111 -0.586126 -0.133708
0.091215 -2.267556 0.130842 -0.208503 -0.398745 0.893045
-0.260030 -2.240649 0.060849 -0.208503 -0.398745 0.893045
-0.086080 -2.478361 -0.004677 -0.208503 -0.398745 0.893045
0.091215 -2.267556 0.130842 -0.196980 -0.021695 0.980167
-0.470828 -1.954876 0.024811 -0.196980 -0.021695 0.980167
-0.260030 -2.240649 0.060849 -0.196980 -0.021695 0.980167
-0.260030 -2.240649 0.060849 -0.812251 -0.581408 -0.047047
-0.299529 -2.155551 -0.308846 -0.812251 -0.581408 -0.047047
-0.086080 -2.478361 -0.004677 -0.812251 -0.581408 -0.047047
-0.278168 0.037777 -0.209083 0.064599 0.997623 0.023971
-1.591571 0.097928 0.827036 0.064599 0.997623 0.023971
-0.930959 0.037777 1.550149 0.064599 0.997623 0.023971
-0.914878 0.210568 -1.267986 -0.451479 0.892219 0.010576
-0.862298 0.231412 -0.781910 -0.451479 0.892219 0.010576
-0.302799 0.520691 -1.301783 -0.451479 0.892219 0.010576
-1.068480 0.101026 -0.360536 0.007341 0.999956 0.005841
-1.736910 0.103204 0.106553 0.007341 0.999956 0.005841
-1.591571 0.097928 0.827036 0.007341 0.999956 0.005841
0.236277 0.037777 0.701510 0.000000 1.000000 -0.000000
1.608835 0.037777 0.559365 0.000000 1.000000 -0.000000
0.656348 0.037777 -0.098120 0.000000 1.000000 -0.000000
-0.930959 0.037777 1.550149 0.000000 1.000000 -0.000000
-0.278168 0.037777 -0.209083 0.000000 1.000000 -0.000000
0.501631 0.037777 1.688231 0.000000 1.000000 0.000000
1.393132 0.037777 1.383312 0.000000 1.000000 0.000000
1.034499 0.275328 -1.269756 0.196507 0.940792 -0.276217
0.471459 0.267036 -1.698558 0.196507 0.940792 -0.276217
0.637660 0.376390 -1.207861 0.196507 0.940792 -0.276217
0.812177 0.491673 -0.567514 -0.157696 0.796105 0.584251
1.244986 0.398908 -0.324291 -0.157696 0.796105 0.584251
1.002755 0.639249 -0.717163 -0.157696 0.796105 0.584251
1.381545 0.288786 -0.765328 0.484775 0.872472 -0.061537
1.685851 0.084184 -1.268915 0.484775 0.872472 -0.061537
1.348978 0.284964 -1.076072 0.484775 0.872472 -0.061537
-0.505260 0.213488 -1.704558 -0.341361 0.885806 -0.314358
-1.247727 0.059337 -1.332687 -0.341361 0.885806 -0.314358
-0.914878 0.210568 -1.267986 -0.341361 0.885806 -0.314358
0.471459 0.267036 -1.698558 0.113029 0.948800 -0.294962
0.254658 0.065420 -2.430170 0.113029 0.948800 -0.294962
-0.221831 0.306144 -1.838428 0.113029 0.948800 -0.294962
-0.221831 0.306144 -1.838428 -0.143666 0.903921 -0.402847
-0.274246 0.065420 -2.359878 -0.143666 0.903921 -0.402847
-0.707720 0.065178 -2.205832 -0.143666 0.903921 -0.402847
-0.020753 -0.743329 -1.377161 0.203115 -0.908935 -0.364119
-0.184171 -0.491687 -2.096484 0.203115 -0.908935 -0.364119
0.506020 -0.293147 -2.207084 0.203115 -0.908935 -0.364119
0.810208 -0.709404 -1.141590 0.065767 -0.508178 -0.858737
1.489208 -0.318759 -1.320762 0.065767 -0.508178 -0.858737
0.957233 -1.089151 -0.905606 0.065767 -0.508178 -0.858737
1.489208 -0.318759 -1.320762 0.842649 -0.529682 0.096844
1.089500 -0.770651 -0.314462 0.842649 -0.529682 0.096844
0.957233 -1.089151 -0.905606 0.842649 -0.529682 0.096844
1.089500 -0.770651 -0.314462 0.476105 -0.841849 0.254193
1.364762 -0.324582 0.647285 0.476105 -0.841849 0.254193
0.745909 -0.723539 0.485115 0.476105 -0.841849 0.254193
1.089500 -0.770651 -0.314462 0.621220 -0.763538 0.176339
2.014675 -0.126122 -0.782958 0.621220 -0.763538 0.176339
1.364762 -0.324582 0.647285 0.621220 -0.763538 0.176339
1.210661 -0.322174 1.134609 0.209165 -0.891710 0.401376
0.289486 -0.743127 0.679448 0.209165 -0.891710 0.401376
0.745909 -0.723539 0.485115 0.209165 -0.891710 0.401376
0.289486 -0.743127 0.679448 0.112256 -0.692154 0.712966
-0.866234 -0.291222 1.300128 0.112256 -0.692154 0.712966
-0.326162 -1.310280 0.225784 0.112256 -0.692154 0.712966
-0.866234 -0.291222 1.300128 -0.735865 -0.635739 0.233105
-0.936850 -0.751093 -0.176985 -0.735865 -0.635739 0.233105
-0.326162 -1.310280 0.225784 -0.735865 -0.635739 0.233105
-0.934732 -0.314137 -1.943344 -0.217928 -0.914338 -0.341311
-0.020753 -0.743329 -1.377161 -0.217928 -0.914338 -0.341311
-0.625318 -0.725192 -1.039731 -0.217928 -0.914338 -0.341311
0.506020 -0.293147 -2.207084 0.359758 -0.297920 -0.884205
0.254658 0.065420 -2.430170 0.359758 -0.297920 -0.884205
1.415955 0.064912 -1.957500 0.359758 -0.297920 -0.884205
0.506020 -0.293147 -2.207084 0.001450 -0.490493 -0.871444
-0.184171 -0.491687 -2.096484 0.001450 -0.490493 -0.871444
-0.344503 -0.106899 -2.313329 0.001450 -0.490493 -0.871444
-0.344503 -0.106899 -2.313329 -0.128825 -0.209322 -0.969324
-0.274246 0.065420 -2.359878 -0.128825 -0.209322 -0.969324
0.254658 0.065420 -2.430170 -0.128825 -0.209322 -0.969324
0.810208 -0.709404 -1.141590 0.363550 -0.827846 -0.427204
0.506020 -0.293147 -2.207084 0.363550 -0.827846 -0.427204
1.489208 -0.318759 -1.320762 0.363550 -0.827846 -0.427204
1.415955 0.064912 -1.957500 0.864833 -0.379805 -0.328348
1.685851 0.084184 -1.268915 0.864833 -0.379805 -0.328348
1.489208 -0.318759 -1.320762 0.864833 -0.379805 -0.328348
1.685851 0.084184 -1.268915 0.843529 0.099206 -0.527842
2.054775 0.091828 -0.677912 0.843529 0.099206 -0.527842
2.014675 -0.126122 -0.782958 0.843529 0.099206 -0.527842
0.957233 -1.089151 -0.905606 0.304896 -0.925237 -0.225775
0.739686 -1.249709 -0.541415 0.304896 -0.925237 -0.225775
0.454708 -1.256676 -0.897711 0.304896 -0.925237 -0.225775
0.957233 -1.089151 -0.905606 0.754980 -0.632785 0.172010
1.089500 -0.770651 -0.314462 0.754980 -0.632785 0.172010
0.739686 -1.249709 -0.541415 0.754980 -0.632785 0.172010
0.810208 -0.709404 -1.141590 0.158331 -0.485892 -0.859558
0.454708 -1.256676 -0.897711 0.158331 -0.485892 -0.859558
0.052641 -1.633897 -0.758536 0.158331 -0.485892 -0.859558
0.454708 -1.256676 -0.897711 0.071930 -0.411827 -0.908419
0.231851 -1.904112 -0.621845 0.071930 -0.411827 -0.908419
0.052641 -1.633897 -0.758536 0.071930 -0.411827 -0.908419
1.364762 -0.324582 0.647285 0.667049 -0.114290 0.736195
1.955554 -0.191974 0.132568 0.667049 -0.114290 0.736195
2.074500 0.090083 0.068582 0.667049 -0.114290 0.736195
2.014675 -0.126122 -0.782958 0.985338 -0.168554 -0.026430
2.054775 0.091828 -0.677912 0.985338 -0.168554 -0.026430
2.074500 0.090083 0.068582 0.985338 -0.168554 -0.026430
1.364762 -0.324582 0.647285 0.833133 -0.508251 0.218107
1.608835 0.037777 0.559365 0.833133 -0.508251 0.218107
1.393132 0.037777 1.383312 0.833133 -0.508251 0.218107
1.393132 0.037777 1.383312 0.308934 -0.297855 0.903240
0.501631 0.037777 1.688231 0.308934 -0.297855 0.903240
0.514977 -0.286422 1.576757 0.308934 -0.297855 0.903240
0.745909 -0.723539 0.485115 0.943374 -0.288606 0.163563
0.507135 -1.581211 0.348922 0.943374 -0.288606 0.163563
0.620568 -1.491335 -0.146730 0.943374 -0.288606 0.163563
0.507135 -1.581211 0.348922 0.227638 -0.654831 0.720678
0.020776 -1.770522 0.330532 0.227638 -0.654831 0.720678
0.342563 -2.052501 -0.027325 0.227638 -0.654831 0.720678
0.745909 -0.723539 0.485115 0.352005 -0.526859 0.773635
0.289486 -0.743127 0.679448 0.352005 -0.526859 0.773635
0.089439 -1.345612 0.360167 0.352005 -0.526859 0.773635
0.507135 -1.581211 0.348922 -0.011353 -0.067744 0.997638
0.089439 -1.345612 0.360167 -0.011353 -0.067744 0.997638
0.020776 -1.770522 0.330532 -0.011353 -0.067744 0.997638
1.089500 -0.770651 -0.314462 0.824551 -0.558121 -0.092827
0.620568 -1.491335 -0.146730 0.824551 -0.558121 -0.092827
0.739686 -1.249709 -0.541415 0.824551 -0.558121 -0.092827
0.620568 -1.491335 -0.146730 0.895938 -0.444176 -0.001524
0.342563 -2.052501 -0.027325 0.895938 -0.444176 -0.001524
0.739686 -1.249709 -0.541415 0.895938 -0.444176 -0.001524
-0.123718 -0.298339 1.611730 -0.330784 -0.673283 0.661265
-0.414258 0.037777 1.808618 -0.330784 -0.673283 0.661265
-0.930959 0.037777 1.550149 -0.330784 -0.673283 0.661265
0.514977 -0.286422 1.576757 0.123552 -0.318115 0.939967
0.501631 0.037777 1.688231 0.123552 -0.318115 0.939967
-0.414258 0.037777 1.808618 0.123552 -0.318115 0.939967
-0.930959 0.037777 1.550149 -0.710606 -0.329252 0.621798
-1.591571 0.097928 0.827036 -0.710606 -0.329252 0.621798
-1.444312 -0.282136 0.794076 -0.710606 -0.329252 0.621798
-1.591571 0.097928 0.827036 -0.914230 0.359435 0.187055
-1.736910 0.103204 0.106553 -0.914230 0.359435 0.187055
-1.839477 -0.177971 0.145553 -0.914230 0.359435 0.187055
-0.326162 -1.310280 0.225784 -0.862841 0.036460 0.504158
-0.611777 -1.317411 -0.262516 -0.862841 0.036460 0.504158
-0.470828 -1.954876 0.024811 -0.862841 0.036460 0.504158
-0.148262 0.773865 -0.947432 -0.214448 0.783558 -0.583137
0.101020 0.922236 -0.839739 -0.214448 0.783558 -0.583137
0.312442 0.779166 -1.109731 -0.214448 0.783558 -0.583137
-0.326162 -1.310280 0.225784 -0.476424 -0.162478 0.864073
-0.470828 -1.954876 0.024811 -0.476424 -0.162478 0.864073
0.020776 -1.770522 0.330532 -0.476424 -0.162478 0.864073
-1.607249 0.010755 -1.680275 -0.672686 -0.690413 -0.266128
-1.675519 -0.336500 -0.606829 -0.672686 -0.690413 -0.266128
-2.011082 0.043485 -0.744422 -0.672686 -0.690413 -0.266128
-1.839477 -0.177971 0.145553 -0.894170 0.362602 0.262642
-1.736910 0.103204 0.106553 -0.894170 0.362602 0.262642
-2.011082 0.043485 -0.744422 -0.894170 0.362602 0.262642
-1.607249 0.010755 -1.680275 -0.088166 0.994955 -0.047871
-1.247727 0.059337 -1.332687 -0.088166 0.994955 -0.047871
-0.707720 0.065178 -2.205832 -0.088166 0.994955 -0.047871
-0.707720 0.065178 -2.205832 -0.332492 -0.117227 -0.935792
-0.274246 0.065420 -2.359878 -0.332492 -0.117227 -0.935792
-0.344503 -0.106899 -2.313329 -0.332492 -0.117227 -0.935792
-0.625318 -0.725192 -1.039731 -0.422393 -0.540336 -0.727751
-0.020753 -0.743329 -1.377161 -0.422393 -0.540336 -0.727751
0.052641 -1.633897 -0.758536 -0.422393 -0.540336 -0.727751
-0.625318 -0.725192 -1.039731 -0.791668 -0.492524 -0.361499
-0.350659 -1.373304 -0.758204 -0.791668 -0.492524 -0.361499
-0.611777 -1.317411 -0.262516 -0.791668 -0.492524 -0.361499
-0.299529 -2.155551 -0.308846 -0.906730 -0.322801 -0.271369
-0.470828 -1.954876 0.024811 -0.906730 -0.322801 -0.271369
-0.611777 -1.317411 -0.262516 -0.906730 -0.322801 -0.271369
-0.299529 -2.155551 -0.308846 -0.214713 -0.550502 -0.806750
0.052641 -1.633897 -0.758536 -0.214713 -0.550502 -0.806750
0.231851 -1.904112 -0.621845 -0.214713 -0.550502 -0.806750
0.231851 -1.904112 -0.621845 0.506337 -0.809792 -0.296411
0.342563 -2.052501 -0.027325 0.506337 -0.809792 -0.296411
0.091215 -2.267556 0.130842 0.506337 -0.809792 -0.296411
0.231851 -1.904112 -0.621845 0.773863 -0.565481 -0.285251
0.739686 -1.249709 -0.541415 0.773863 -0.565481 -0.285251
0.342563 -2.052501 -0.027325 0.773863 -0.565481 -0.285251
0.091215 -2.267556 0.130842 -0.375936 -0.390836 0.840190
0.020776 -1.770522 0.330532 -0.375936 -0.390836 0.840190
-0.470828 -1.954876 0.024811 -0.375936 -0.390836 0.840190
0.342563 -2.052501 -0.027325 0.641356 -0.206036 0.739061
0.020776 -1.770522 0.330532 0.641356 -0.206036 0.739061
0.091215 -2.267556 0.130842 0.641356 -0.206036 0.739061
-0.299529 -2.155551 -0.308846 -0.800525 -0.597048 -0.051900
-0.260030 -2.240649 0.060849 -0.800525 -0.597048 -0.051900
-0.470828 -1.954876 0.024811 -0.800525 -0.597048 -0.051900
-0.278168 0.037777 -0.209083 0.073099 0.996717 0.034798
-1.068480 0.101026 -0.360536 0.073099 0.996717 0.034798
-1.591571 0.097928 0.827036 0.073099 0.996717 0.034798
-1.247727 0.059337 -1.332687 -0.047039 0.998310 -0.034138
-2.011082 0.043485 -0.744422 -0.047039 0.998310 -0.034138
-1.068480 0.101026 -0.360536 -0.047039 0.998310 -0.034138
-1.068480 0.101026 -0.360536 -0.037279 0.997620 -0.058000
-2.011082 0.043485 -0.744422 -0.037279 0.997620 -0.058000
-1.736910 0.103204 0.106553 -0.037279 0.997620 -0.058000
-0.414258 0.037777 1.808618 0.000000 1.000000 0.000000
1.685851 0.084184 -1.268915 0.251796 0.856047 -0.451423
1.034499 0.275328 -1.269756 0.251796 0.856047 -0.451423
1.348978 0.284964 -1.076072 0.251796 0.856047 -0.451423
0.656348 0.037777 -0.098120 -0.044318 0.996952 0.064203
1.608835 0.037777 0.559365 -0.044318 0.996952 0.064203
2.074500 0.090083 0.068582 -0.044318 0.996952 0.064203
1.244986 0.398908 -0.324291 0.295075 0.944490 -0.144463
2.054775 0.091828 -0.677912 0.295075 0.944490 -0.144463
1.381545 0.288786 -0.765328 0.295075 0.944490 -0.144463
-0.221831 0.306144 -1.838428 -0.498034 0.480949 -0.721560
-0.505260 0.213488 -1.704558 -0.498034 0.480949 -0.721560
-0.262315 0.721321 -1.533752 -0.498034 0.480949 -0.721560
0.471459 0.267036 -1.698558 0.121281 0.947158 -0.296955
1.415955 0.064912 -1.957500 0.121281 0.947158 -0.296955
0.254658 0.065420 -2.430170 0.121281 0.947158 -0.296955
-0.221831 0.306144 -1.838428 -0.055013 0.908641 -0.413938
0.254658 0.065420 -2.430170 -0.055013 0.908641 -0.413938
-0.274246 0.065420 -2.359878 -0.055013 0.908641 -0.413938
-0.020753 -0.743329 -1.377161 0.149389 -0.905792 -0.396515
0.506020 -0.293147 -2.207084 0.149389 -0.905792 -0.396515
0.810208 -0.709404 -1.141590 0.149389 -0.905792 -0.396515
1.489208 -0.318759 -1.320762 0.497948 -0.847704 -0.182885
2.014675 -0.126122 -0.782958 0.497948 -0.847704 -0.182885
1.089500 -0.770651 -0.314462 0.497948 -0.847704 -0.182885
1.364762 -0.324582 0.647285 0.503912 -0.848132 0.163537
1.210661 -0.322174 1.134609 0.503912 -0.848132 0.163537
0.745909 -0.723539 0.485115 0.503912 -0.848132 0.163537
1.210661 -0.322174 1.134609 0.209218 -0.891736 0.401292
0.514977 -0.286422 1.576757 0.209218 -0.891736 0.401292
0.289486 -0.743127 0.679448 0.209218 -0.891736 0.401292
0.289486 -0.743127 0.679448 -0.162145 -0.916603 0.365442
-0.123718 -0.298339 1.611730 -0.162145 -0.916603 0.365442
-0.866234 -0.291222 1.300128 -0.162145 -0.916603 0.365442
0.289486 -0.743127 0.679448 0.041058 -0.894588 0.445002
0.514977 -0.286422 1.576757 0.041058 -0.894588 0.445002
-0.123718 -0.298339 1.611730 0.041058 -0.894588 0.445002
-0.866234 -0.291222 1.300128 -0.275026 -0.914167 0.297757
-1.444312 -0.282136 0.794076 -0.275026 -0.914167 0.297757
-0.936850 -0.751093 -0.176985 -0.275026 -0.914167 0.297757
-1.444312 -0.282136 0.794076 -0.487927 -0.858194 0.159466
-1.839477 -0.177971 0.145553 -0.487927 -0.858194 0.159466
-0.936850 -0.751093 -0.176985 -0.487927 -0.858194 0.159466
-0.936850 -0.751093 -0.176985 -0.403728 -0.898421 -0.172756
-1.675519 -0.336500 -0.606829 -0.403728 -0.898421 -0.172756
-0.625318 -0.725192 -1.039731 -0.403728 -0.898421 -0.172756
-0.936850 -0.751093 -0.176985 -0.517675 -0.852957 0.066909
-1.839477 -0.177971 0.145553 -0.517675 -0.852957 0.066909
-1.675519 -0.336500 -0.606829 -0.517675 -0.852957 0.066909
-0.934732 -0.314137 -1.943344 -0.272460 -0.925814 -0.261981
-0.184171 -0.491687 -2.096484 -0.272460 -0.925814 -0.261981
-0.020753 -0.743329 -1.377161 -0.272460 -0.925814 -0.261981
-0.862298 0.231412 -0.781910 0.062061 0.842272 0.535467
-0.404757 0.197895 -0.782219 0.062061 0.842272 0.535467
-0.302799 0.520691 -1.301783 0.062061 0.842272 0.535467
0.568488 0.537125 -0.913448 -0.551248 0.683734 0.478156
0.656348 0.037777 -0.098120 -0.551248 0.683734 0.478156
0.812177 0.491673 -0.567514 -0.551248 0.683734 0.478156
-0.262315 0.721321 -1.533752 -0.213818 0.757013 0.617424
-0.302799 0.520691 -1.301783 -0.213818 0.757013 0.617424
0.115069 0.760356 -1.450921 -0.213818 0.757013 0.617424
-0.061115 0.654189 -0.643377 0.027941 0.579677 0.814367
0.205810 0.801703 -0.757537 0.027941 0.579677 0.814367
0.101020 0.922236 -0.839739 0.027941 0.579677 0.814367
0.205810 0.801703 -0.757537 0.686999 0.708215 0.162680
0.312442 0.779166 -1.109731 0.686999 0.708215 0.162680
0.101020 0.922236 -0.839739 0.686999 0.708215 0.162680
0.656348 0.037777 -0.098120 -0.265754 0.732275 0.627015
0.312442 0.779166 -1.109731 -0.265754 0.732275 0.627015
0.344937 0.262088 -0.492076 -0.265754 0.732275 0.627015
0.312442 0.779166 -1.109731 0.609839 0.689476 -0.390794
0.115069 0.760356 -1.450921 0.609839 0.689476 -0.390794
0.077232 0.934717 -1.202342 0.609839 0.689476 -0.390794
-0.278168 0.037777 -0.209083 0.191788 0.518516 0.833282
0.344937 0.262088 -0.492076 0.191788 0.518516 0.833282
-0.102879 0.422805 -0.489015 0.191788 0.518516 0.833282
-0.269697 0.566033 -0.874217 -0.848104 0.523746 0.080063
-0.148262 0.773865 -0.947432 -0.848104 0.523746 0.080063
-0.186512 0.743264 -1.152426 -0.848104 0.523746 0.080063
0.637660 0.376390 -1.207861 0.744297 0.644037 -0.176740
0.312442 0.779166 -1.109731 0.744297 0.644037 -0.176740
0.568488 0.537125 -0.913448 0.744297 0.644037 -0.176740
-0.148262 0.773865 -0.947432 -0.588752 0.808241 -0.010797
0.077232 0.934717 -1.202342 -0.588752 0.808241 -0.010797
-0.186512 0.743264 -1.152426 -0.588752 0.808241 -0.010797
-0.278168 0.037777 -0.209083 -0.063048 0.845033 0.530984
0.656348 0.037777 -0.098120 -0.063048 0.845033 0.530984
0.344937 0.262088 -0.492076 -0.063048 0.845033 0.530984
-0.404757 0.197895 -0.782219 -0.774175 0.405487 0.486039
-0.102879 0.422805 -0.489015 -0.774175 0.405487 0.486039
-0.269697 0.566033 -0.874217 -0.774175 0.405487 0.486039
1.002755 0.639249 -0.717163 0.009213 0.878584 -0.477499
0.637660 0.376390 -1.207861 0.009213 0.878584 -0.477499
0.568488 0.537125 -0.913448 0.009213 0.878584 -0.477499
1.002755 0.639249 -0.717163 -0.368310 0.852282 0.371434
0.568488 0.537125 -0.913448 -0.368310 0.852282 0.371434
0.812177 0.491673 -0.567514 -0.368310 0.852282 0.371434
1.002755 0.639249 -0.717163 0.680780 0.731952 0.028032
1.244986 0.398908 -0.324291 0.680780 0.731952 0.028032
1.381545 0.288786 -0.765328 0.680780 0.731952 0.028032
1.002755 0.639249 -0.717163 0.292029 0.806373 -0.514278
1.348978 0.284964 -1.076072 0.292029 0.806373 -0.514278
1.034499 0.275328 -1.269756 0.292029 0.806373 -0.514278
1.002755 0.639249 -0.717163 0.671521 0.736715 -0.079439
1.381545 0.288786 -0.765328 0.671521 0.736715 -0.079439
1.348978 0.284964 -1.076072 0.671521 0.736715 -0.079439
0.656348 0.037777 -0.098120 -0.204323 0.736731 0.644577
1.244986 0.398908 -0.324291 -0.204323 0.736731 0.644577
0.812177 0.491673 -0.567514 -0.204323 0.736731 0.644577
1.002755 0.639249 -0.717163 0.127518 0.831689 -0.540401
1.034499 0.275328 -1.269756 0.127518 0.831689 -0.540401
0.637660 0.376390 -1.207861 0.127518 0.831689 -0.540401
1.034499 0.275328 -1.269756 0.148193 0.965691 -0.213260
1.415955 0.064912 -1.957500 0.148193 0.965691 -0.213260
0.471459 0.267036 -1.698558 0.148193 0.965691 -0.213260
1.381545 0.288786 -0.765328 0.298863 0.933395 -0.198632
2.054775 0.091828 -0.677912 0.298863 0.933395 -0.198632
1.685851 0.084184 -1.268915 0.298863 0.933395 -0.198632
1.685851 0.084184 -1.268915 0.279128 0.950573 -0.136011
1.415955 0.064912 -1.957500 0.279128 0.950573 -0.136011
1.034499 0.275328 -1.269756 0.279128 0.950573 -0.136011
1.244986 0.398908 -0.324291 0.351847 0.936030 -0.007109
2.074500 0.090083 0.068582 0.351847 0.936030 -0.007109
2.054775 0.091828 -0.677912 0.351847 0.936030 -0.007109
0.568488 0.537125 -0.913448 0.412774 0.795871 0.442952
0.312442 0.779166 -1.109731 0.412774 0.795871 0.442952
0.656348 0.037777 -0.098120 0.412774 0.795871 0.442952
0.637660 0.376390 -1.207861 0.676300 0.636437 -0.370899
0.471459 0.267036 -1.698558 0.676300 0.636437 -0.370899
0.312442 0.779166 -1.109731 0.676300 0.636437 -0.370899
0.656348 0.037777 -0.098120 -0.112175 0.652309 0.749606
2.074500 0.090083 0.068582 -0.112175 0.652309 0.749606
1.244986 0.398908 -0.324291 -0.112175 0.652309 0.749606
0.312442 0.779166 -1.109731 0.900741 0.355212 0.249982
0.205810 0.801703 -0.757537 0.900741 0.355212 0.249982
0.344937 0.262088 -0.492076 0.900741 0.355212 0.249982
-0.102879 0.422805 -0.489015 0.054740 0.547276 0.835160
0.205810 0.801703 -0.757537 0.054740 0.547276 0.835160
-0.061115 0.654189 -0.643377 0.054740 0.547276 0.835160
-0.102879 0.422805 -0.489015 0.174787 0.470544 0.864892
0.344937 0.262088 -0.492076 0.174787 0.470544 0.864892
0.205810 0.801703 -0.757537 0.174787 0.470544 0.864892
-0.148262 0.773865 -0.947432 -0.819420 0.413037 0.397430
-0.102879 0.422805 -0.489015 -0.819420 0.413037 0.397430
-0.061115 0.654189 -0.643377 -0.819420 0.413037 0.397430
-0.302799 0.520691 -1.301783 -0.935367 0.351933 0.035096
-0.404757 0.197895 -0.782219 -0.935367 0.351933 0.035096
-0.269697 0.566033 -0.874217 -0.935367 0.351933 0.035096
-0.302799 0.520691 -1.301783 -0.564513 0.642593 -0.518072
-0.186512 0.743264 -1.152426 -0.564513 0.642593 -0.518072
0.077232 0.934717 -1.202342 -0.564513 0.642593 -0.518072
-0.302799 0.520691 -1.301783 -0.891873 0.451792 0.021139
-0.269697 0.566033 -0.874217 -0.891873 0.451792 0.021139
-0.186512 0.743264 -1.152426 -0.891873 0.451792 0.021139
-0.302799 0.520691 -1.301783 -0.556071 0.638273 -0.532346
0.077232 0.934717 -1.202342 -0.556071 0.638273 -0.532346
0.115069 0.760356 -1.450921 -0.556071 0.638273 -0.532346
-0.221831 0.306144 -1.838428 0.194953 0.548876 -0.812852
0.115069 0.760356 -1.450921 0.194953 0.548876 -0.812852
0.471459 0.267036 -1.698558 0.194953 0.548876 -0.812852
-0.278168 0.037777 -0.209083 0.018057 0.952626 0.303607
-0.862298 0.231412 -0.781910 0.018057 0.952626 0.303607
-1.068480 0.101026 -0.360536 0.018057 0.952626 0.303607
-0.302799 0.520691 -1.301783 -0.910049 0.378636 0.168656
-0.262315 0.721321 -1.533752 -0.910049 0.378636 0.168656
-0.505260 0.213488 -1.704558 -0.910049 0.378636 0.168656
-0.302799 0.520691 -1.301783 -0.431763 0.808594 -0.399696
-0.505260 0.213488 -1.704558 -0.431763 0.808594 -0.399696
-0.914878 0.210568 -1.267986 -0.431763 0.808594 -0.399696
-1.247727 0.059337 -1.332687 -0.414588 0.909991 0.005824
-0.862298 0.231412 -0.781910 -0.414588 0.909991 0.005824
-0.914878 0.210568 -1.267986 -0.414588 0.909991 0.005824
-0.505260 0.213488 -1.704558 -0.279804 0.945470 -0.166723
-0.707720 0.065178 -2.205832 -0.279804 0.945470 -0.166723
-1.247727 0.059337 -1.332687 -0.279804 0.945470 -0.166723
-0.221831 0.306144 -1.838428 -0.361917 0.923511 -0.127061
-0.707720 0.065178 -2.205832 -0.361917 0.923511 -0.127061
-0.505260 0.213488 -1.704558 -0.361917 0.923511 -0.127061
0.312442 0.779166 -1.109731 0.633798 0.660195 -0.403040
0.471459 0.267036 -1.698558 0.633798 0.660195 -0.403040
0.115069 0.760356 -1.450921 0.633798 0.660195 -0.403040
-0.269697 0.566033 -0.874217 -0.662414 0.561673 0.495713
-0.102879 0.422805 -0.489015 -0.662414 0.561673 0.495713
-0.148262 0.773865 -0.947432 -0.662414 0.561673 0.495713
-0.148262 0.773865 -0.947432 0.221736 0.724107 0.653072
0.312442 0.779166 -1.109731 0.221736 0.724107 0.653072
0.077232 0.934717 -1.202342 0.221736 0.724107 0.653072
-0.404757 0.197895 -0.782219 -0.747849 0.577950 0.326642
-0.278168 0.037777 -0.209083 -0.747849 0.577950 0.326642
-0.102879 0.422805 -0.489015 -0.747849 0.577950 0.326642
-0.221831 0.306144 -1.838428 0.113113 0.594980 -0.795741
-0.262315 0.721321 -1.533752 0.113113 0.594980 -0.795741
0.115069 0.760356 -1.450921 0.113113 0.594980 -0.795741
-0.278168 0.037777 -0.209083 0.070836 0.964646 0.253850
-0.404757 0.197895 -0.782219 0.070836 0.964646 0.253850
-0.862298 0.231412 -0.781910 0.070836 0.964646 0.253850
-1.247727 0.059337 -1.332687 -0.462896 0.885145 0.047392
-1.068480 0.101026 -0.360536 -0.462896 0.885145 0.047392
-0.862298 0.231412 -0.781910 -0.462896 0.885145 0.047392
-0.148262 0.773865 -0.947432 -0.591876 0.677685 0.436377
-0.061115 0.654189 -0.643377 -0.591876 0.677685 0.436377
0.101020 0.922236 -0.839739 -0.591876 0.677685 0.436377
3 0 1 2
3 3 4 5
3 6 7 8
3 9 10 11
3 12 13 14
3 15 16 17
3 18 19 20
3 21 22 23
3 24 25 26
3 27 28 29
3 30 31 32
3 33 34 35
3 36 37 38
3 39 40 41
3 42 43 44
3 45 46 47
3 48 49 50
3 51 52 53
3 54 55 56
3 57 58 59
3 60 61 62
3 63 64 65
3 66 67 68
3 69 70 71
3 72 73 74
3 75 76 77
3 78 79 80
3 81 82 83
3 84 85 86
3 87 88 89
3 90 91 92
3 93 94 95
3 96 97 98
3 99 100 101
3 102 103 104
3 105 106 107
3 108 109 110
3 111 112 113
3 114 115 116
3 117 118 119
3 120 121 122
3 123 120 124
3 120 125 126
3 127 128 129
3 130 131 132
3 133 134 135
3 136 137 138
3 139 140 141
3 142 143 144
3 145 146 147
3 148 149 150
3 151 152 153
3 154 155 156
3 157 158 159
3 160 161 162
3 163 164 165
3 166 167 168
3 169 170 171
3 172 173 174
3 175 176 177
3 178 179 180
3 181 182 183
3 184 185 186
3 187 188 189
3 190 191 192
3 193 194 195
3 196 197 198
3 199 200 201
3 202 203 204
3 205 206 207
3 208 209 210
3 211 212 213
3 214 215 216
3 217 218 219
3 220 221 222
3 223 224 225
3 226 227 228
3 229 230 231
3 232 233 234
3 235 236 237
3 238 239 240
3 241 242 243
3 244 245 246
3 247 248 249
3 250 251 252
3 253 254 255
3 256 257 258
3 259 260 261
3 262 263 264
3 265 266 267
3 268 269 270
3 271 272 273
3 274 275 276
3 277 278 279
3 280 281 282
3 283 284 285
3 286 287 288
3 289 290 291
3 292 293 294
3 295 296 297
3 298 299 300
3 120 126 121
3 123 301 120
3 120 301 125
3 302 303 304
3 305 306 307
3 308 309 310
3 311 312 313
3 314 315 316
3 317 318 319
3 320 321 322
3 323 324 325
3 326 327 328
3 329 330 331
3 332 333 334
3 335 336 337
3 338 339 340
3 341 342 343
3 344 345 346
3 347 348 349
3 350 351 352
3 353 354 355
3 120 122 124
3 356 357 358
3 359 360 361
3 362 363 364
3 365 366 367
3 368 369 370
3 371 372 373
3 374 375 376
3 377 378 379
3 380 381 382
3 383 384 385
3 386 387 388
3 389 390 391
3 392 393 394
3 395 396 397
3 398 399 400
3 401 402 403
3 404 405 406
3 407 408 409
3 410 411 412
3 413 414 415
3 416 417 418
3 419 420 421
3 422 423 424
3 425 426 427
3 428 429 430
3 431 432 433
3 434 435 436
3 437 438 439
3 440 441 442
3 443 444 445
3 446 447 448
3 449 450 451
3 452 453 454
3 455 456 457
3 458 459 460
3 461 462 463
3 464 465 466
3 467 468 469
3 470 471 472
3 473 474 475
3 476 477 478
3 479 480 481
3 482 483 484
3 485 486 487
3 488 489 490
3 491 492 493
3 494 495 496
3 497 498 499
3 500 501 502
