ply
format ascii 1.0
comment Created by Blender 2.90.1 - www.blender.org
element vertex 162
property float x
property float y
property float z
element face 320
property list uchar uint vertex_indices
end_header
1.811245 2.600455 1.876434
1.093744 1.975218 2.374916
1.852814 2.097286 2.749420
0.728197 1.173648 2.523730
1.783049 1.110708 3.235255
0.407228 2.236151 -2.109293
0.332650 1.251176 -2.749605
0.459639 1.067211 -1.383092
2.520151 -0.325380 1.406237
2.966597 -0.144652 1.737198
2.494869 -0.375309 1.872237
3.908369 1.189455 1.366756
3.534320 1.835426 2.200937
3.734504 1.236809 2.526877
3.016670 2.693650 -3.670265
3.456318 2.619007 -2.582343
4.135963 1.352911 -2.786786
1.409961 2.754681 -3.588876
2.225334 2.787670 -3.650514
1.445729 2.641175 -3.701173
1.932461 -0.324328 1.394981
2.229561 -0.376269 1.882048
1.901567 -0.363420 1.865388
2.664302 1.133062 3.228337
2.230490 2.037831 2.727374
2.229636 0.982921 3.209274
2.223149 2.539600 1.978135
2.752500 2.127399 2.726842
2.688234 2.603600 1.927624
3.110671 3.361418 -1.165758
2.237997 3.347698 -0.910836
3.011379 3.284868 -0.787132
1.877707 -0.308155 -1.319090
2.225099 -0.248855 -0.988258
1.896478 -0.201677 -1.065279
4.120906 0.939192 -1.275845
3.794904 2.374258 -1.399749
4.075856 0.944686 -1.054313
2.926350 -0.319764 -1.334192
2.553311 -0.201696 -1.065249
2.571625 -0.308325 -1.319654
0.865995 1.576023 -0.844812
0.814359 1.010406 -0.936824
0.909753 0.915460 -0.810786
0.617324 1.907349 -1.096056
1.010274 2.969425 -0.988247
0.925781 3.170647 -1.742242
2.233315 3.595659 -1.414966
1.525738 -0.320175 -1.333356
1.566551 -0.195303 -1.043539
1.439997 -0.126971 1.708679
1.418981 -0.148461 1.275569
0.663667 2.124284 -2.835899
2.225280 -0.351414 -1.396573
3.990059 2.475735 -1.837134
3.556273 2.026525 1.524348
2.287562 3.298257 -2.546970
2.218629 -0.304914 1.393756
2.508681 -0.066948 -0.791687
2.225105 -0.143122 -0.823750
3.712905 2.681753 -0.748934
2.228996 3.184660 -0.651470
1.941648 -0.067022 -0.791837
1.586864 -0.034409 -0.790391
0.711879 0.851833 0.320071
2.786043 3.020981 -0.518961
3.974625 0.897871 -0.813268
2.879902 -0.199377 -1.049193
0.766940 1.663843 -0.978609
0.899991 2.765529 -0.864724
3.004170 3.344627 -1.612277
3.998706 2.534262 -2.126680
2.519336 -0.401490 -1.548629
2.225287 -0.319815 -1.609061
1.475199 -0.360211 -1.557660
2.238585 3.588780 -1.612747
1.010316 3.359218 -2.237779
2.976009 -0.360036 -1.561368
3.916143 0.894032 -1.783874
1.930129 -0.401618 -1.548479
0.759706 1.085342 -1.041876
2.869790 3.056877 -2.393759
1.972579 -0.332085 -1.901829
2.482858 -0.332922 -1.901996
1.422962 -0.320441 -1.826909
2.225080 -0.245725 -1.850992
0.928692 0.191135 -1.264747
0.611216 0.506246 -1.427147
0.986274 0.141438 -1.544255
3.335055 -0.057190 -1.992218
3.784646 0.436415 -1.540516
3.480067 0.150975 -1.519196
0.953351 0.289195 -0.983100
0.754740 0.666200 -1.030139
3.641172 0.363441 -1.366151
3.472828 0.131768 -1.376622
3.419171 0.176495 -1.048497
3.936625 0.722929 -0.807974
3.420832 0.237129 1.399479
0.859006 0.629752 0.299454
0.983012 0.351743 -0.840868
1.060015 0.245573 0.317050
2.222404 -0.024697 -2.926928
2.637865 0.352056 -3.393479
2.583488 -0.023687 -2.834435
3.389515 0.741069 2.693016
2.530773 0.013523 2.471909
3.229390 0.156730 1.998016
2.224885 0.455683 3.096954
1.920776 0.013817 2.472186
2.216264 0.035614 2.460683
0.771336 0.446729 -2.321315
1.862394 -0.020561 -2.839116
1.113076 -0.048028 -1.995362
0.864991 0.730284 -0.943535
1.803785 0.367625 -3.404377
3.664920 0.419545 -2.296980
3.357915 0.155243 1.814053
0.919223 0.707487 2.317744
1.191652 0.167249 1.993274
3.021437 -0.153737 1.286271
3.035812 -0.318004 -1.824203
1.467278 -0.066778 0.263885
2.857834 -0.037941 -0.792408
3.911117 0.679651 -1.023253
0.854168 0.722907 -0.836958
2.228806 0.544812 -3.560359
2.573666 0.485428 3.166745
1.868268 0.495536 3.173990
3.851173 0.802142 1.303555
4.241842 0.854491 0.363377
0.701523 0.696065 0.830246
1.458084 -0.142287 0.917186
2.972157 -0.070490 0.267326
3.396967 0.153221 1.569041
0.983905 0.254509 0.889685
0.668108 1.054446 0.890629
0.646243 1.930404 0.298367
2.223884 -0.224346 0.289346
2.581450 2.620078 0.325962
4.003437 1.911981 0.180303
2.215478 2.186826 0.324579
1.843961 -0.120348 0.296284
4.324336 1.001463 0.366425
2.609297 -0.120240 0.294062
1.268822 2.164743 0.322042
0.543067 1.205332 1.377666
0.851736 2.060623 1.153197
0.582914 0.828090 1.283725
1.019926 0.185434 1.440780
4.033166 1.481368 1.015306
3.731986 0.656235 0.875705
3.003166 -0.135395 0.915663
3.430177 0.201792 1.694866
2.549976 -0.330560 1.017423
2.216048 -0.356974 1.019118
3.592893 2.068242 1.191751
1.837628 2.397702 1.138044
2.239025 2.503768 1.140313
2.596253 2.407889 1.144187
1.901862 -0.331326 1.020938
0.892683 2.036020 1.514209
3 0 1 2
3 2 3 4
3 5 6 7
3 8 9 10
3 11 12 13
3 14 15 16
3 17 18 19
3 20 21 22
3 23 24 25
3 26 27 28
3 29 30 31
3 32 33 34
3 35 36 37
3 38 39 40
3 41 42 43
3 44 45 46
3 47 45 30
3 48 34 49
3 20 50 51
3 52 19 6
3 24 4 25
3 26 2 24
3 40 33 53
3 29 36 54
3 28 12 55
3 13 27 23
3 56 14 18
3 57 10 21
3 33 58 59
3 31 60 36
3 45 61 30
3 49 62 63
3 64 41 43
3 30 65 31
3 33 62 34
3 37 60 66
3 67 58 39
3 68 69 45
3 70 54 71
3 72 53 73
3 74 32 48
3 75 46 47
3 5 46 76
3 77 40 72
3 78 54 35
3 79 53 32
3 70 47 29
3 68 80 42
3 56 70 81
3 82 73 79
3 16 71 78
3 83 77 72
3 52 76 17
3 56 76 75
3 84 79 74
3 83 73 85
3 15 70 71
3 44 7 80
3 86 87 88
3 89 90 91
3 92 93 86
3 91 94 95
3 96 97 98
3 99 100 101
3 102 103 104
3 105 106 107
3 108 109 110
3 111 112 113
3 100 114 92
3 94 96 95
3 106 108 110
3 115 102 112
3 104 116 89
3 117 105 107
3 88 111 113
3 109 118 119
3 109 50 22
3 88 84 74
3 117 9 120
3 104 121 83
3 112 85 82
3 106 21 10
3 38 96 67
3 63 92 49
3 84 112 82
3 21 109 22
3 9 106 10
3 85 104 83
3 101 63 122
3 96 123 67
3 77 95 38
3 49 86 48
3 121 91 77
3 86 74 48
3 80 87 93
3 116 78 90
3 42 93 114
3 90 35 94
3 124 66 97
3 99 43 125
3 126 14 103
3 105 23 127
3 25 128 108
3 6 115 111
3 43 114 125
3 35 124 94
3 127 25 108
3 19 126 115
3 103 16 116
3 129 13 105
3 7 111 87
3 4 118 128
3 66 130 97
3 131 64 99
3 132 101 122
3 98 133 123
3 98 130 134
3 135 99 101
3 136 137 64
3 58 138 59
3 60 139 140
3 69 141 61
3 63 142 122
3 65 141 139
3 62 138 142
3 66 140 143
3 123 144 58
3 41 145 69
3 146 147 136
3 148 135 149
3 51 135 132
3 148 136 131
3 130 150 151
3 134 152 133
3 134 151 153
3 138 154 155
3 139 156 140
3 141 157 158
3 142 132 122
3 139 158 159
3 138 160 142
3 140 150 143
3 144 152 154
3 145 147 157
3 118 146 148
3 50 149 51
3 118 149 119
3 3 161 146
3 151 11 129
3 153 120 152
3 153 129 117
3 155 8 57
3 159 55 156
3 158 0 26
3 160 51 132
3 158 28 159
3 155 20 160
3 156 11 150
3 154 120 8
3 157 161 0
3 0 161 1
3 2 1 3
3 5 52 6
3 8 120 9
3 11 55 12
3 14 81 15
3 17 56 18
3 20 57 21
3 23 27 24
3 26 24 27
3 29 47 30
3 32 53 33
3 35 54 36
3 38 67 39
3 41 68 42
3 44 68 45
3 47 46 45
3 48 32 34
3 20 22 50
3 52 17 19
3 24 2 4
3 26 0 2
3 40 39 33
3 29 31 36
3 28 27 12
3 13 12 27
3 56 81 14
3 57 8 10
3 33 39 58
3 31 65 60
3 45 69 61
3 49 34 62
3 64 137 41
3 30 61 65
3 33 59 62
3 37 36 60
3 67 123 58
3 68 41 69
3 70 29 54
3 72 40 53
3 74 79 32
3 75 76 46
3 5 44 46
3 77 38 40
3 78 71 54
3 79 73 53
3 70 75 47
3 68 44 80
3 56 75 70
3 82 85 73
3 16 15 71
3 83 121 77
3 52 5 76
3 56 17 76
3 84 82 79
3 83 72 73
3 15 81 70
3 44 5 7
3 86 93 87
3 89 116 90
3 92 114 93
3 91 90 94
3 96 124 97
3 99 125 100
3 102 126 103
3 105 127 106
3 108 128 109
3 111 115 112
3 100 125 114
3 94 124 96
3 106 127 108
3 115 126 102
3 104 103 116
3 117 129 105
3 88 87 111
3 109 128 118
3 109 119 50
3 88 113 84
3 117 107 9
3 104 89 121
3 112 102 85
3 106 110 21
3 38 95 96
3 63 100 92
3 84 113 112
3 21 110 109
3 9 107 106
3 85 102 104
3 101 100 63
3 96 98 123
3 77 91 95
3 49 92 86
3 121 89 91
3 86 88 74
3 80 7 87
3 116 16 78
3 42 80 93
3 90 78 35
3 124 37 66
3 99 64 43
3 126 18 14
3 105 13 23
3 25 4 128
3 6 19 115
3 43 42 114
3 35 37 124
3 127 23 25
3 19 18 126
3 103 14 16
3 129 11 13
3 7 6 111
3 4 3 118
3 66 143 130
3 131 136 64
3 132 135 101
3 98 134 133
3 98 97 130
3 135 131 99
3 136 147 137
3 58 144 138
3 60 65 139
3 69 145 141
3 63 62 142
3 65 61 141
3 62 59 138
3 66 60 140
3 123 133 144
3 41 137 145
3 146 161 147
3 148 131 135
3 51 149 135
3 148 146 136
3 130 143 150
3 134 153 152
3 134 130 151
3 138 144 154
3 139 159 156
3 141 145 157
3 142 160 132
3 139 141 158
3 138 155 160
3 140 156 150
3 144 133 152
3 145 137 147
3 118 3 146
3 50 119 149
3 118 148 149
3 3 1 161
3 151 150 11
3 153 117 120
3 153 151 129
3 155 154 8
3 159 28 55
3 158 157 0
3 160 20 51
3 158 26 28
3 155 57 20
3 156 55 11
3 154 152 120
3 157 147 161
